<?xml version="1.0" encoding="UTF-8"?>
<svg id="Layer_2" data-name="Layer 2" xmlns="http://www.w3.org/2000/svg" viewBox="0 0 56.69 56.69">
  <defs>
    <style>
      .cls-1 {
        fill-rule: evenodd;
      }
    </style>
  </defs>
  <g id="Layer_1-2" data-name="Layer 1">
    <path class="cls-1" d="M0,28.35c0,15.65,12.69,28.35,28.35,28.35s28.35-12.69,28.35-28.35S44,0,28.35,0,0,12.69,0,28.35Zm18.41-3.57l8.84-10.82c.28-.34,.65-.52,1.09-.52s.81,.18,1.09,.52l8.84,10.82c.35,.43,.42,.99,.18,1.49-.24,.5-.72,.81-1.27,.81h-6.15v13.48c0,1.48-1.21,2.69-2.69,2.69h0c-1.48,0-2.69-1.21-2.69-2.69v-13.48h-6.15c-.56,0-1.03-.3-1.27-.81s-.17-1.06,.18-1.49Z"/>
  </g>
</svg>