<?xml version="1.0" encoding="UTF-8"?>
<svg id="Layer_2" data-name="Layer 2" xmlns="http://www.w3.org/2000/svg" viewBox="0 0 56.69 56.69">
  <defs>
    <style>
      .cls-1 {
        fill: #010101;
      }
    </style>
  </defs>
  <g id="Layer_1-2" data-name="Layer 1">
    <path class="cls-1" d="M53.02,0H3.67C1.64,0,0,1.65,0,3.68V53.01c0,2.03,1.64,3.67,3.67,3.68H53.02c2.03,0,3.67-1.65,3.67-3.68V3.68c0-2.03-1.64-3.67-3.67-3.68Zm-12.75,31.68l-8.41,11.65c-1.63,1.92-4.5,2.15-6.42,.52-.19-.16-.36-.33-.52-.52l-8.41-11.64c-.7-.94-.7-2.22,0-3.15,.84-1.05,2.13-1.64,3.47-1.6h4.21V15.09c0-.32,.05-.63,.17-.93,.73-1.55,2.32-2.51,4.04-2.42,1.71-.09,3.31,.86,4.04,2.42,.11,.3,.17,.61,.17,.93v11.82h4.21c1.34-.04,2.63,.55,3.47,1.6,.71,.94,.71,2.24,0,3.18Z"/>
  </g>
</svg>