<?xml version="1.0" encoding="UTF-8"?>
<svg id="Layer_2" data-name="Layer 2" xmlns="http://www.w3.org/2000/svg" viewBox="0 0 56.69 56.69">
  <defs>
    <style>
      .cls-1 {
        fill: #010101;
      }
    </style>
  </defs>
  <g id="Layer_1-2" data-name="Layer 1">
    <g>
      <path class="cls-1" d="M13.64,52.59c4.22,2.57,9.03,3.98,13.97,4.1h1.08c15.65-.19,28.19-13.04,27.99-28.7C56.5,12.34,43.65-.19,28,0,12.34,.2-.19,13.04,0,28.7c.12,9.78,5.28,18.81,13.64,23.88h0ZM28.35,4.57c13.13,0,23.77,10.65,23.77,23.78,0,7.2-3.27,14.01-8.88,18.53v-7.1c0-6.28-5.09-11.37-11.37-11.38h-7.04c-6.28,.01-11.36,5.1-11.37,11.38v7.1C3.22,38.66,1.59,23.69,9.82,13.45,14.33,7.84,21.14,4.58,28.35,4.57Z"/>
      <circle class="cls-1" cx="28.35" cy="16.32" r="9.83"/>
    </g>
  </g>
</svg>