<?xml version="1.0" encoding="UTF-8"?>
<svg id="Layer_2" data-name="Layer 2" xmlns="http://www.w3.org/2000/svg" viewBox="0 0 56.69 56.69">
  <defs>
    <style>
      .cls-1 {
        fill: #010101;
      }
    </style>
  </defs>
  <g id="Layer_1-2" data-name="Layer 1">
    <path class="cls-1" d="M50.52,56.69H6.17c-3.4,0-6.17-2.86-6.17-6.37V6.37C0,2.86,2.77,0,6.17,0H50.52c3.4,0,6.18,2.86,6.18,6.37V50.33c0,3.51-2.77,6.37-6.18,6.37ZM6.17,3.23c-1.68,0-3.04,1.41-3.04,3.14V50.33c0,1.73,1.36,3.14,3.04,3.14H50.52c1.68,0,3.04-1.41,3.04-3.14V6.37c0-1.73-1.36-3.14-3.04-3.14H6.17Z"/>
  </g>
</svg>