<?xml version="1.0" encoding="UTF-8"?>
<svg id="Layer_2" data-name="Layer 2" xmlns="http://www.w3.org/2000/svg" viewBox="0 0 56.69 56.69">
  <defs>
    <style>
      .cls-1 {
        fill: #010101;
      }
    </style>
  </defs>
  <g id="Layer_1-2" data-name="Layer 1">
    <g>
      <g>
        <path class="cls-1" d="M45.12,7.03V1.62c0-.9-.71-1.62-1.59-1.62s-1.59,.73-1.59,1.62V7.03c0,.9,.71,1.62,1.59,1.62s1.59-.73,1.59-1.62h0Z"/>
        <g>
          <path class="cls-1" d="M7.04,7.03V1.62C7.04,.73,6.32,0,5.45,0s-1.59,.73-1.59,1.62V7.03c0,.9,.71,1.62,1.59,1.62s1.59-.73,1.59-1.62h0Z"/>
          <path class="cls-1" d="M19.73,7.03V1.62c0-.9-.71-1.62-1.59-1.62s-1.59,.73-1.59,1.62V7.03c0,.9,.71,1.62,1.59,1.62s1.59-.73,1.59-1.62h0Z"/>
          <path class="cls-1" d="M32.43,7.03V1.62c0-.9-.71-1.62-1.59-1.62s-1.59,.73-1.59,1.62V7.03c0,.9,.71,1.62,1.59,1.62s1.59-.73,1.59-1.62h0Z"/>
          <path class="cls-1" d="M46.77,4.32v2.7c0,1.83-1.45,3.31-3.24,3.31s-3.24-1.49-3.24-3.31v-2.7h-6.22v2.7c0,1.83-1.45,3.31-3.24,3.31s-3.24-1.49-3.24-3.31v-2.7h-6.22v2.7c0,1.83-1.45,3.31-3.24,3.31s-3.24-1.49-3.24-3.31v-2.7h-6.22v2.7c0,1.83-1.45,3.31-3.24,3.31s-3.24-1.49-3.24-3.31v-2.7H0V49.74H31.14c-.5-1.51-.76-3.12-.76-4.8,0-2.8,.75-5.42,2.05-7.67v-8.07h9.52v.97c1.04-.24,2.13-.37,3.24-.37,1.2,0,2.36,.15,3.48,.42V4.32h-1.89ZM16.56,38.92H7.04v-9.73h9.52v9.73Zm0-12.98H7.04v-9.73h9.52v9.73Zm12.7,12.98h-9.52v-9.73h9.52v9.73Zm0-12.98h-9.52v-9.73h9.52v9.73Zm12.7,0h-9.52v-9.73h9.52v9.73Z"/>
        </g>
      </g>
      <g>
        <path class="cls-1" d="M45.19,33.18c-6.35,0-11.5,5.26-11.5,11.76s5.15,11.76,11.5,11.76,11.5-5.26,11.5-11.76-5.15-11.76-11.5-11.76Zm.75,20.99v-1.29c0-.42-.33-.76-.75-.76s-.75,.34-.75,.76v1.29c-4.41-.37-7.93-3.96-8.29-8.47h1.26c.41,0,.75-.34,.75-.76s-.33-.76-.75-.76h-1.26c.36-4.51,3.88-8.11,8.29-8.47v1.29c0,.42,.33,.76,.75,.76s.75-.34,.75-.76v-1.29c4.41,.37,7.93,3.96,8.29,8.47h-1.26c-.41,0-.75,.34-.75,.76s.33,.76,.75,.76h1.26c-.36,4.51-3.88,8.1-8.29,8.47Z"/>
        <path class="cls-1" d="M44.6,46.19h0c.67,.57,1.68,.39,2.12-.37l4.11-6.44-6.26,4.61c-.65,.59-.64,1.63,.03,2.2Z"/>
      </g>
    </g>
  </g>
</svg>