<?xml version="1.0" encoding="UTF-8"?>
<svg id="Layer_2" data-name="Layer 2" xmlns="http://www.w3.org/2000/svg" viewBox="0 0 56.69 56.69">
  <defs>
    <style>
      .cls-1 {
        fill: #010101;
      }
    </style>
  </defs>
  <g id="Layer_1-2" data-name="Layer 1">
    <g>
      <path class="cls-1" d="M13.22,0h3.58c.44,0,.8,.34,.8,.77v7.5c0,.42-.36,.77-.8,.77h-3.58c-.44,0-.8-.34-.8-.77V.77c0-.42,.36-.77,.8-.77Z"/>
      <path class="cls-1" d="M39.67,0h3.58c.44,0,.8,.34,.8,.77v7.5c0,.42-.36,.77-.8,.77h-3.58c-.44,0-.8-.34-.8-.77V.77c0-.42,.36-.77,.8-.77Z"/>
      <path class="cls-1" d="M54.1,4.52h-8.74v2.04c0,2.05-1.74,3.71-3.9,3.71s-3.9-1.66-3.9-3.71v-2.04H18.91v2.04c0,2.05-1.74,3.71-3.9,3.71s-3.9-1.66-3.9-3.71v-2.04H2.6c-1.43,0-2.6,1.11-2.6,2.47H0V54.22c0,1.36,1.16,2.47,2.6,2.47H54.1c1.43,0,2.6-1.11,2.6-2.47h0V6.99c0-1.36-1.16-2.47-2.6-2.47Zm-.54,48.88H2.92V16.04H53.56V53.4Z"/>
      <path class="cls-1" d="M5.84,18.46V50.99H50.64V18.46H5.84Zm20.25,25.66c-3.14,2.7-7.87,2.84-11.18,.34-1.43-1.2-2.33-2.87-2.5-4.68l4.47-.52c.07,.93,.48,1.81,1.15,2.48,.6,.56,1.42,.87,2.27,.86,.92,.01,1.8-.37,2.41-1.03,.68-.78,1.03-1.77,.98-2.78,.05-.96-.28-1.9-.93-2.62-.58-.62-1.41-.98-2.28-.97-.72,.02-1.43,.13-2.12,.33l.51-3.58c1.02,.1,2.04-.18,2.86-.77,.66-.55,1.02-1.35,.99-2.18,.1-1.3-.93-2.43-2.3-2.53-.12,0-.23,0-.35,0-.76-.01-1.49,.27-2.02,.78-.61,.63-.97,1.43-1.02,2.28l-4.25-.69c.21-1.18,.67-2.31,1.34-3.32,.63-.85,1.49-1.53,2.5-1.95,1.13-.48,2.35-.73,3.59-.71,2.04-.09,4.03,.66,5.45,2.06,2.19,2,2.26,5.3,.16,7.38-.54,.54-1.21,.96-1.94,1.24,1.3,.24,2.48,.91,3.31,1.89,.84,1.01,1.28,2.26,1.24,3.55,.03,1.95-.81,3.82-2.31,5.14Zm16.99,1.73h-4.61V29.31c-1.71,1.51-3.74,2.65-5.96,3.33v-3.98c1.43-.49,2.75-1.21,3.92-2.13,1.32-.93,2.33-2.2,2.91-3.66h3.74v22.99h0Z"/>
    </g>
  </g>
</svg>