<?xml version="1.0" encoding="UTF-8"?>
<svg id="Layer_2" data-name="Layer 2" xmlns="http://www.w3.org/2000/svg" viewBox="0 0 56.69 56.69">
  <defs>
    <style>
      .cls-1 {
        fill: none;
      }

      .cls-2 {
        fill: #010101;
      }
    </style>
  </defs>
  <g id="Layer_1-2" data-name="Layer 1">
    <g>
      <path class="cls-2" d="M8.08,7.47v3.68h11.05v-3.68H8.08Zm-3.07,6.14c-2.38,0-4.3,1.92-4.3,4.3v27.02c0,2.38,1.92,4.3,4.3,4.3H51.68c2.38,0,4.3-1.92,4.3-4.3V17.91c0-2.38-1.92-4.3-4.3-4.3H5.01Zm23.34,4.3c7.45,0,13.51,6.06,13.51,13.51s-6.06,13.51-13.51,13.51-13.51-6.06-13.51-13.51,6.06-13.51,13.51-13.51Zm19.04,1.84c1.02,0,1.84,.82,1.84,1.84s-.82,1.84-1.84,1.84-1.84-.82-1.84-1.84,.82-1.84,1.84-1.84Zm-19.04,.61c-6.12,0-11.05,4.93-11.05,11.05s4.93,11.05,11.05,11.05,11.05-4.93,11.05-11.05-4.93-11.05-11.05-11.05Zm0,3.07c4.41,0,7.98,3.57,7.98,7.98s-3.57,7.98-7.98,7.98-7.98-3.57-7.98-7.98,3.57-7.98,7.98-7.98Z"/>
      <rect class="cls-1" width="56.69" height="56.69"/>
    </g>
  </g>
</svg>