<?xml version="1.0" encoding="UTF-8"?>
<svg id="Layer_2" data-name="Layer 2" xmlns="http://www.w3.org/2000/svg" viewBox="0 0 56.69 56.69">
  <defs>
    <style>
      .cls-1 {
        fill: none;
      }

      .cls-2 {
        fill: #010101;
      }
    </style>
  </defs>
  <g id="Layer_1-2" data-name="Layer 1">
    <g>
      <g>
        <path class="cls-2" d="M50.2,12.32H22.95l-1.44,2.17h-6.35l-.9-3.08H6.82l-.73,3.08s-3.26,0-3.8,3.08c-.38,2.18-.23,15.2-.1,22.59,.04,2.84,2.36,5.12,5.2,5.12H50.34c2.38,0,4.3-1.93,4.3-4.31V16.76c0-2.45-1.99-4.44-4.44-4.44h0Zm-19.42,28.35c-5.13,0-9.28-4.16-9.28-9.28,0-5.13,4.16-9.28,9.28-9.28,5.12,0,9.28,4.15,9.28,9.28,0,5.13-4.15,9.29-9.28,9.29h0Zm19.86-21.91c0,.55-.44,.99-.99,.99h-8.97c-.35,0-.63-.28-.63-.63v-3.91c-.01-.3,.22-.55,.52-.56,.01,0,.03,0,.04,0h10.05l-.02,4.11Z"/>
        <path class="cls-2" d="M33.89,26.33c-1.55-.94-3.41-1.23-5.17-.79-.4,.1-.64,.49-.54,.89s.49,.64,.89,.54h0c2.89-.69,5.79,1.09,6.48,3.99,.41,1.72-.05,3.53-1.23,4.85-.27,.3-.25,.75,.05,1.02,.13,.13,.31,.19,.49,.19,.2,0,.4-.09,.54-.23,2.54-2.8,2.34-7.13-.46-9.67-.32-.29-.67-.56-1.05-.78Z"/>
      </g>
      <rect class="cls-1" width="56.69" height="56.69"/>
    </g>
  </g>
</svg>