<?xml version="1.0" encoding="UTF-8"?>
<svg id="Layer_2" data-name="Layer 2" xmlns="http://www.w3.org/2000/svg" viewBox="0 0 56.69 56.69">
  <defs>
    <style>
      .cls-1 {
        fill: none;
      }

      .cls-2 {
        fill: #010101;
      }
    </style>
  </defs>
  <g id="Layer_1-2" data-name="Layer 1">
    <g>
      <path class="cls-2" d="M28.35,23.47c-4.76,0-8.62,3.86-8.62,8.62s3.86,8.62,8.62,8.62,8.62-3.86,8.62-8.62-3.86-8.62-8.62-8.62Zm19.06-11.17h-6.71c-.76-3.44-3.82-6.01-7.49-6.01h-9.72c-3.67,0-6.73,2.57-7.49,6.01h-6.71c-4.24,0-7.67,3.43-7.67,7.67v22.76c0,4.24,3.44,7.67,7.67,7.67H47.4c4.24,0,7.67-3.43,7.67-7.67V19.97c0-4.24-3.44-7.67-7.67-7.67ZM28.35,44.84c-7.05,0-12.76-5.71-12.76-12.76s5.71-12.76,12.76-12.76,12.76,5.71,12.76,12.76-5.71,12.76-12.76,12.76Zm19.14-23.12c-1.46,0-2.64-1.18-2.64-2.64s1.18-2.64,2.64-2.64,2.64,1.18,2.64,2.64-1.18,2.64-2.64,2.64Z"/>
      <rect class="cls-1" width="56.69" height="56.69"/>
    </g>
  </g>
</svg>