<?xml version="1.0" encoding="UTF-8"?>
<svg id="Layer_2" data-name="Layer 2" xmlns="http://www.w3.org/2000/svg" viewBox="0 0 56.69 56.69">
  <defs>
    <style>
      .cls-1 {
        fill: none;
      }

      .cls-2 {
        fill: #010101;
      }
    </style>
  </defs>
  <g id="Layer_1-2" data-name="Layer 1">
    <g>
      <g>
        <path class="cls-2" d="M8.37,32.36c-2.19-.05-4.01,1.69-4.05,3.88-.05,2.19,1.69,4.01,3.88,4.05,.09,0,.19,0,.28,0,2.19-.11,3.88-1.97,3.77-4.16-.1-2.08-1.79-3.73-3.88-3.78Z"/>
        <path class="cls-2" d="M49.98,25.9c-1.73-.31-3.52-.28-5.28-.52-.73-.06-1.42-.32-2.02-.75-2.4-2.06-4.77-4.16-7.05-6.34-1.3-1.28-3.07-1.97-4.9-1.89-4.52,.05-9.03,0-13.55,0-2.19,0-4.38,.03-6.57,.17-2.09,.12-3.78,.95-4.82,2.94-.9,1.75-2.02,3.4-3,5.12C.92,27.9,.32,31.48,.43,35.21c-.07,1.07,.74,1.99,1.8,2.06,.03,0,.07,0,.1,0,.28-4.43,2.72-7.15,6.23-6.99,3.51,.16,5.99,3.02,5.82,6.99h25.94c-.27-4.64,2.82-6.79,5.58-6.88,1.33,.01,2.64,.38,3.79,1.07,2.14,1.27,2.79,3.46,2.64,5.83,3.45,.21,3.94-.24,3.94-3.49v-.25c-.02-4.01-2.37-6.96-6.29-7.66Zm-31.69-1.36c0,.48-.39,.87-.87,.87H7.82c-.24,0-.44-.2-.44-.44h0v-.54c0-2.79,2.26-5.06,5.06-5.06h4.98c.48,0,.87,.38,.88,.85v4.32Zm17.22,.72h-14.31c-.41,0-.74-.33-.74-.74h0v-4.42c0-.41,.33-.74,.74-.74h9.93c.2,0,.39,.08,.53,.22l4.35,4.41c.29,.3,.28,.77-.02,1.06-.13,.13-.31,.2-.5,.21h.02Z"/>
        <path class="cls-2" d="M46.25,32.36c-2.19,.1-3.88,1.96-3.78,4.15,.1,2.08,1.79,3.73,3.87,3.78,2.19-.1,3.88-1.96,3.78-4.15-.1-2.08-1.79-3.73-3.87-3.78Z"/>
      </g>
      <rect class="cls-1" width="56.69" height="56.69"/>
    </g>
  </g>
</svg>