<?xml version="1.0" encoding="UTF-8"?>
<svg id="Layer_2" data-name="Layer 2" xmlns="http://www.w3.org/2000/svg" viewBox="0 0 56.69 56.69">
  <defs>
    <style>
      .cls-1 {
        fill: none;
      }

      .cls-2 {
        fill: #010101;
      }
    </style>
  </defs>
  <g id="Layer_1-2" data-name="Layer 1">
    <g>
      <g>
        <path class="cls-2" d="M55.71,32.64c0-.07-.05-.14-.07-.21-.09-.43-.22-.86-.38-1.27-1.24-2.74-3.74-4.69-6.7-5.22-1.25-.26-2.51-.46-3.76-.69-1.02-.18-1.95-.69-2.66-1.43-.7-.71-1.42-1.4-2.14-2.09-1.77-1.73-3.83-3.14-6.08-4.17-3.18-1.39-6.6-2.12-10.07-2.16-2.36-.11-4.73,.01-7.07,.37-1.53,.24-3.01,.73-4.38,1.43-1.45,.84-2.81,1.83-4.06,2.95-1,.86-2.24,1.39-3.55,1.53l-.05,.08c-2.09,.07-3.76,1.77-3.78,3.87v6.94c.02,2.7,2.2,4.88,4.9,4.9h.25c-.04-.26-.06-.52-.06-.79,.1-3.09,2.68-5.51,5.77-5.42,2.95,.09,5.33,2.46,5.42,5.42,0,.3-.03,.59-.07,.89h22.27c-.05-.29-.07-.59-.07-.89,0-3.09,2.5-5.59,5.59-5.59s5.59,2.5,5.59,5.59h0c0,.3-.02,.6-.07,.89h1.99c1.8,0,3.27-1.45,3.29-3.26h0c0-.24-.01-.47-.03-.71l.03-.21-.03-.74Zm-36.8-7h-4.07c-.52,0-1.05-.02-1.57-.07-1.01-.11-1.97-.53-2.74-1.2-.72-.57-.89-1.6-.38-2.37,.12-.22,.26-.42,.42-.61,.84-.93,1.87-1.66,3.02-2.15,1.42-.72,2.98-1.1,4.57-1.13,.52,0,1.02,.25,1.31,.68,.31,.41,.48,.91,.48,1.43v4.34c.07,.52-.29,.99-.8,1.06-.08,.01-.16,.01-.23,0Zm18.36-.37c-.36,.24-.78,.37-1.2,.37h-11.86c-.47,.04-.91-.24-1.06-.68-.14-.29-.21-.61-.23-.93-.03-1.42,0-2.85,0-4.28-.02-.78,.57-1.44,1.35-1.52,.95-.03,1.9,0,2.85,.07,1.2,.13,2.37,.39,3.51,.78,2.12,.6,4.07,1.69,5.7,3.17,.48,.46,.91,.96,1.29,1.51,.34,.41,.29,1.02-.12,1.36-.07,.05-.14,.1-.21,.14Z"/>
        <path class="cls-2" d="M11.63,31.99c-2.59-.02-4.69,2.07-4.71,4.65-.02,2.59,2.07,4.69,4.65,4.71,2.59,.02,4.69-2.07,4.71-4.65,0-.01,0-.02,0-.03,0-2.57-2.08-4.66-4.65-4.68Zm0,6.99c-1.28,0-2.31-1.03-2.32-2.31,0-1.28,1.03-2.31,2.31-2.32s2.31,1.03,2.32,2.31c0,0,0,0,0,0,0,1.27-1.03,2.31-2.31,2.31Z"/>
        <path class="cls-2" d="M44.94,31.99c-2.59,0-4.68,2.09-4.69,4.68,0,2.59,2.09,4.68,4.68,4.69,2.59,0,4.68-2.09,4.69-4.68,0,0,0,0,0-.01,0-2.58-2.1-4.67-4.68-4.68Zm0,6.99c-1.28,0-2.31-1.03-2.31-2.31,0-1.28,1.03-2.31,2.31-2.31s2.31,1.03,2.31,2.31-1.03,2.31-2.31,2.31h0Z"/>
      </g>
      <rect class="cls-1" width="56.69" height="56.69"/>
    </g>
  </g>
</svg>