<?xml version="1.0" encoding="UTF-8"?>
<svg id="Layer_2" data-name="Layer 2" xmlns="http://www.w3.org/2000/svg" viewBox="0 0 56.69 56.69">
  <defs>
    <style>
      .cls-1 {
        fill: none;
      }

      .cls-2 {
        fill: #010101;
      }
    </style>
  </defs>
  <g id="Layer_1-2" data-name="Layer 1">
    <g>
      <path class="cls-2" d="M2.31,3.55c-1.03,0-1.86,.83-1.86,1.86s.83,1.86,1.86,1.86h6.18c3.08,7.62,6.11,15.26,9.16,22.9l-2.81,6.76c-.24,.56-.17,1.24,.17,1.75,.34,.51,.94,.83,1.55,.83h30.99c.98,.01,1.89-.88,1.89-1.86s-.9-1.87-1.89-1.86H19.36l1.61-3.84,29.85-2.38c.78-.06,1.49-.67,1.67-1.43l3.72-16.12c.24-1.09-.71-2.27-1.82-2.27H13.49l-2.01-5.04c-.28-.68-.99-1.16-1.72-1.16H2.31ZM14.98,13.47h11.51v5.58h-9.28l-2.23-5.58Zm15.23,0h7.44v5.58h-7.44v-5.58Zm11.16,0h10.67l-1.28,5.58h-9.39v-5.58Zm-22.66,9.3h7.79v5.02l-5.6,.45-2.19-5.46Zm11.51,0h7.44v4.13l-7.44,.6v-4.73Zm11.16,0h8.52l-.74,3.22-7.79,.62v-3.84Zm-18.6,17.98c-3.4,0-6.2,2.8-6.2,6.2s2.8,6.2,6.2,6.2,6.2-2.8,6.2-6.2-2.8-6.2-6.2-6.2Zm18.6,0c-3.4,0-6.2,2.8-6.2,6.2s2.8,6.2,6.2,6.2,6.2-2.8,6.2-6.2-2.8-6.2-6.2-6.2Zm-18.6,3.72c1.39,0,2.48,1.09,2.48,2.48s-1.09,2.48-2.48,2.48-2.48-1.09-2.48-2.48,1.09-2.48,2.48-2.48Zm18.6,0c1.39,0,2.48,1.09,2.48,2.48s-1.09,2.48-2.48,2.48-2.48-1.09-2.48-2.48,1.09-2.48,2.48-2.48Z"/>
      <rect class="cls-1" width="56.69" height="56.69"/>
    </g>
  </g>
</svg>