<?xml version="1.0" encoding="UTF-8"?>
<svg id="Layer_2" data-name="Layer 2" xmlns="http://www.w3.org/2000/svg" viewBox="0 0 56.69 56.69">
  <defs>
    <style>
      .cls-1 {
        fill: none;
      }

      .cls-2 {
        fill: #010101;
      }
    </style>
  </defs>
  <g id="Layer_1-2" data-name="Layer 1">
    <g>
      <g>
        <circle class="cls-2" cx="15.8" cy="50.31" r="3.14"/>
        <circle class="cls-2" cx="45.14" cy="50.31" r="3.14"/>
        <path class="cls-2" d="M55.5,12.17c-.09-.31-.37-.52-.68-.55L12.25,7.51c-.37-.04-.81-.27-.98-.61-.5-.93-.81-1.45-1.59-2.43-1.01-1.23-2.9-1.19-6.38-1.22-1.18-.01-2.13,.68-2.13,1.84s.9,1.84,2.04,1.84,2.78,.07,3.4,.25,1.11,1.19,1.29,2.07c0,.01,0,.03,.01,.04,.03,.16,.26,1.33,.26,1.35l5.23,27.66c.31,1.9,.95,3.46,1.9,4.67,1.1,1.41,2.55,2.12,4.3,2.12h30.92c.99,0,1.84-.76,1.88-1.75,.05-1.05-.78-1.91-1.83-1.91H19.57c-.26,0-.64,0-1.08-.37-.46-.39-1.08-1.29-1.5-3.4l-.56-3.1s.01-.07,.05-.08l36.3-6.14c.34-.05,.6-.33,.64-.68l2.09-15.14c.03-.1,.03-.22,0-.34h0Z"/>
      </g>
      <rect class="cls-1" width="56.69" height="56.69"/>
    </g>
  </g>
</svg>