<?xml version="1.0" encoding="UTF-8"?>
<svg id="Layer_2" data-name="Layer 2" xmlns="http://www.w3.org/2000/svg" viewBox="0 0 56.69 56.69">
  <defs>
    <style>
      .cls-1 {
        fill: none;
      }

      .cls-2 {
        fill: #010101;
      }
    </style>
  </defs>
  <g id="Layer_1-2" data-name="Layer 1">
    <g>
      <g>
        <path class="cls-2" d="M52.41,7.77H19.77c-1.29,0-2.33,1.04-2.35,2.33v5.4h16.47c2.68,0,4.86,2.22,4.86,4.9v13.54h3.92l5.44,6.51c1.27,1.52,2.31,1.13,2.3-.85l-.02-5.65h2.03c1.27,0,2.31-.97,2.31-2.25V10.1c0-1.28-1.03-2.32-2.31-2.33Z"/>
        <path class="cls-2" d="M33.89,18.79H3.54c-.86,0-1.57,.74-1.57,1.61v19.43c0,.85,.69,1.53,1.54,1.53,0,0,.02,0,.03,0h2.56v5.81c0,1.98,1.06,2.34,2.33,.81l5.53-6.62h19.94c.85,.02,1.55-.65,1.57-1.5,0,0,0-.02,0-.03V20.4c0-.86-.7-1.61-1.57-1.61Z"/>
      </g>
      <rect class="cls-1" x="0" y="0" width="56.69" height="56.69" transform="translate(56.69 0) rotate(90)"/>
    </g>
  </g>
</svg>