<?xml version="1.0" encoding="UTF-8"?>
<svg id="Layer_2" data-name="Layer 2" xmlns="http://www.w3.org/2000/svg" viewBox="0 0 56.69 56.69">
  <defs>
    <style>
      .cls-1 {
        fill: none;
      }

      .cls-2 {
        fill: #010101;
      }
    </style>
  </defs>
  <g id="Layer_1-2" data-name="Layer 1">
    <g>
      <path class="cls-2" d="M37.62,3.1H19.08C9.19,3.1,1.15,11.15,1.15,21.04v4.9c0,7.71,4.9,14.54,12.2,17l.72,.24-.38,.66c-.98,1.68-2.3,4.32-4.04,8.07-.21,.45-.12,.99,.23,1.34,.35,.35,.9,.45,1.34,.25l21-9.61h5.4c9.88,0,17.92-8.05,17.92-17.94v-4.9c0-9.9-8.04-17.94-17.92-17.94ZM14.34,27.28c-1.86,0-3.38-1.52-3.38-3.38s1.52-3.38,3.38-3.38,3.38,1.52,3.38,3.38-1.52,3.38-3.38,3.38Zm14.01,0c-1.86,0-3.38-1.52-3.38-3.38s1.52-3.38,3.38-3.38,3.38,1.52,3.38,3.38-1.52,3.38-3.38,3.38Zm14.01,0c-1.86,0-3.38-1.52-3.38-3.38s1.52-3.38,3.38-3.38,3.38,1.52,3.38,3.38c0,1.86-1.51,3.38-3.38,3.38Z"/>
      <rect class="cls-1" width="56.69" height="56.69"/>
    </g>
  </g>
</svg>