<?xml version="1.0" encoding="UTF-8"?>
<svg id="Layer_2" data-name="Layer 2" xmlns="http://www.w3.org/2000/svg" viewBox="0 0 56.69 56.69">
  <defs>
    <style>
      .cls-1 {
        fill: #010101;
      }
    </style>
  </defs>
  <g id="Layer_1-2" data-name="Layer 1">
    <g>
      <path class="cls-1" d="M39.05,21.24c-9.74,0-17.64,7.83-17.64,17.5s7.9,17.5,17.64,17.5,17.64-7.83,17.64-17.5c0-9.67-7.9-17.5-17.64-17.5Zm6.96,24.71c-.39,.88-.94,1.65-1.63,2.3-.7,.65-1.51,1.15-2.42,1.5-.65,.25-1.32,.41-2,.48v2.17h-2.22v-2.23c-1.13-.18-2.2-.58-3.24-1.21-1.43-.88-2.42-2.06-2.99-3.55l3.59-1.62c.5,.89,1.05,1.58,1.66,2.06,.61,.48,1.38,.72,2.31,.72s1.72-.29,2.35-.86c.64-.57,.96-1.3,.96-2.2,0-.55-.12-1-.35-1.32-.23-.32-.63-.67-1.19-1.04l-4.11-2.18c-1.43-.77-2.49-1.54-3.17-2.29-.68-.76-1.03-1.81-1.03-3.18,0-1.76,.63-3.25,1.89-4.47,.96-.92,2.06-1.5,3.3-1.72v-2.23h2.22v2.19c.92,.12,1.78,.44,2.55,.93,1.04,.66,1.86,1.6,2.45,2.8l-3.41,1.8c-.25-.55-.63-1.01-1.14-1.37-.51-.36-1.07-.53-1.66-.53s-1.12,.21-1.59,.62c-.47,.42-.7,.92-.7,1.51,0,.74,.34,1.35,1.01,1.83,.67,.48,1.72,1.02,3.15,1.65,.41,.18,.72,.32,.94,.42,1.56,.71,2.79,1.53,3.69,2.45,.9,.93,1.36,2.17,1.36,3.7,0,1.02-.2,1.97-.59,2.85Z"/>
      <path class="cls-1" d="M21.23,20.87c11.72,0,21.23-4.67,21.23-10.43S32.95,0,21.23,0,0,4.67,0,10.43s9.5,10.44,21.23,10.44Zm3.59-8.37c-.28-.19-.76-.4-1.43-.62l-4.94-1.3c-1.72-.46-3-.92-3.82-1.37-.83-.45-1.23-1.08-1.23-1.89,0-1.05,.76-1.94,2.27-2.66,1.15-.55,2.47-.89,3.97-1.02v-1.33h2.66v1.3c1.12,.08,2.14,.26,3.08,.55,1.25,.4,2.24,.96,2.95,1.67l-4.1,1.08c-.3-.33-.76-.6-1.38-.81-.62-.21-1.28-.31-2-.31s-1.35,.12-1.91,.37c-.56,.25-.84,.55-.84,.9,0,.44,.41,.81,1.21,1.09s2.07,.61,3.79,.98c.49,.11,.86,.19,1.12,.25,1.87,.42,3.35,.92,4.44,1.46,1.09,.55,1.63,1.29,1.63,2.21,0,.61-.23,1.17-.7,1.7s-1.12,.98-1.96,1.37c-.84,.39-1.82,.69-2.92,.89-.78,.15-1.58,.25-2.4,.29v1.3h-2.66v-1.33c-1.36-.11-2.65-.35-3.89-.72-1.72-.53-2.92-1.23-3.59-2.11l4.32-.96c.6,.53,1.27,.94,2,1.23s1.66,.42,2.78,.42,2.07-.17,2.84-.51,1.15-.78,1.15-1.31c-.02-.34-.17-.6-.44-.79Z"/>
      <path class="cls-1" d="M21.23,28.03c.52,0,1.05,0,1.56-.03,1.62-2.42,3.79-4.46,6.32-5.95-2.49,.46-5.15,.71-7.88,.71-5.96,0-11.59-1.15-15.86-3.25-2.14-1.05-3.84-2.3-5.06-3.67-.2,.57-.3,1.16-.3,1.76C0,23.36,9.5,28.03,21.23,28.03Z"/>
      <path class="cls-1" d="M37.24,19.43c.6-.05,1.2-.08,1.82-.08,1.03,0,2.03,.08,3.01,.23,.25-.64,.39-1.3,.39-1.98,0-.6-.1-1.19-.3-1.76-1.19,1.34-2.84,2.56-4.91,3.59Z"/>
      <path class="cls-1" d="M19.84,35.18c.35-1.86,.96-3.62,1.8-5.25-.14,0-.28,0-.42,0-5.96,0-11.59-1.15-15.86-3.25-2.14-1.05-3.84-2.3-5.06-3.67-.2,.57-.3,1.16-.3,1.77,0,5.52,8.76,10.05,19.84,10.4Z"/>
      <path class="cls-1" d="M19.84,42.34c-.22-1.17-.34-2.37-.34-3.59,0-.57,.03-1.13,.08-1.68-5.34-.19-10.34-1.32-14.21-3.22-2.14-1.05-3.84-2.3-5.06-3.67C.11,30.74,0,31.34,0,31.94,0,37.47,8.76,41.99,19.84,42.34Z"/>
      <path class="cls-1" d="M21.23,49.53c.53,0,1.05,0,1.57-.03-1.08-1.6-1.92-3.36-2.49-5.25-5.62-.11-10.89-1.26-14.94-3.24-2.14-1.05-3.84-2.3-5.06-3.67-.2,.57-.3,1.16-.3,1.76C0,44.86,9.5,49.53,21.23,49.53Z"/>
      <path class="cls-1" d="M24.19,51.32c-.98,.06-1.96,.1-2.96,.1-5.96,0-11.59-1.15-15.86-3.25-2.14-1.05-3.84-2.3-5.06-3.67-.2,.57-.3,1.16-.3,1.77C0,52.02,9.51,56.69,21.23,56.69c3.04,0,5.94-.31,8.55-.88-2.14-1.15-4.03-2.67-5.6-4.49Z"/>
    </g>
  </g>
</svg>