<?xml version="1.0" encoding="UTF-8"?>
<svg id="Layer_2" data-name="Layer 2" xmlns="http://www.w3.org/2000/svg" viewBox="0 0 56.69 56.69">
  <g id="Layer_1-2" data-name="Layer 1">
    <path id="collapse" d="M48.39,8.3C37.32-2.77,19.37-2.77,8.3,8.3c-11.07,11.07-11.07,29.02,0,40.09,11.07,11.07,29.02,11.07,40.09,0,11.07-11.07,11.07-29.02,0-40.09h0ZM11.6,33.63c-.97,0-1.76-.79-1.76-1.76v-7.05c0-.97,.79-1.76,1.76-1.76h22.03c6.06,0,11.46,0,11.46,0,.97,0,1.76,.79,1.76,1.76v7.05c0,.97-.79,1.76-1.76,1.76H23.07c-17.87,0-11.47,0-11.47,0Z"/>
  </g>
</svg>