<?xml version="1.0" encoding="UTF-8"?>
<svg id="Layer_2" data-name="Layer 2" xmlns="http://www.w3.org/2000/svg" viewBox="0 0 56.69 56.69">
  <defs>
    <style>
      .cls-1 {
        fill: none;
      }
    </style>
  </defs>
  <g id="Layer_1-2" data-name="Layer 1">
    <g>
      <path d="M46.07,20.83c-.06-9.29-7.63-16.84-16.94-16.84S12.66,11.13,12.21,20.08C6.04,22.61,1.68,28.68,1.68,35.76c0,9.34,7.6,16.94,16.94,16.94,3.62,0,6.97-1.14,9.73-3.08,2.76,1.94,6.11,3.08,9.73,3.08,9.34,0,16.94-7.6,16.94-16.94,0-6.45-3.62-12.07-8.94-14.93Zm-10.91,11.29c-.6-2.72-1.85-5.2-3.59-7.26,1.9-1.14,4.12-1.81,6.5-1.81,1.21,0,2.38,.18,3.5,.5-.78,3.7-3.17,6.82-6.41,8.57Zm-6.82,11.81c-1.51-1.8-2.52-4.01-2.85-6.45,1.17,.26,2.39,.4,3.64,.4,.69,0,1.36-.05,2.03-.13-.37,2.33-1.36,4.45-2.81,6.18Zm-11.71-20.71c.65-.1,1.31-.17,1.98-.17,2.38,0,4.6,.67,6.5,1.81-1.55,1.84-2.72,4.01-3.38,6.4-2.62-1.88-4.5-4.74-5.11-8.04Zm12.49,10.43c-1.21,0-2.38-.18-3.5-.5,.44-2.08,1.39-3.98,2.71-5.55,1.39,1.66,2.36,3.67,2.77,5.88-.65,.1-1.31,.17-1.98,.17Zm0-25.42c6.42,0,11.74,4.8,12.58,10.99-1.17-.26-2.39-.4-3.64-.4-3.62,0-6.97,1.14-9.73,3.08-2.76-1.94-6.11-3.08-9.73-3.08-.69,0-1.36,.05-2.03,.13,.96-6.07,6.21-10.72,12.54-10.72ZM5.91,35.76c0-4.83,2.71-9.03,6.68-11.19,1.07,4.88,4.26,8.98,8.55,11.29,.02,4.11,1.52,7.87,3.99,10.8-1.91,1.14-4.12,1.81-6.5,1.81-7.01,0-12.71-5.7-12.71-12.71Zm32.16,12.71c-2.38,0-4.6-.67-6.5-1.81,2.31-2.75,3.78-6.23,3.97-10.05,4.81-1.97,8.52-6.1,9.92-11.18,3.22,2.31,5.32,6.07,5.32,10.32,0,7.01-5.7,12.71-12.71,12.71Z"/>
      <rect class="cls-1" width="56.69" height="56.69"/>
    </g>
  </g>
</svg>