<?xml version="1.0" encoding="UTF-8"?>
<svg id="Layer_2" data-name="Layer 2" xmlns="http://www.w3.org/2000/svg" viewBox="0 0 56.69 56.69">
  <defs>
    <style>
      .cls-1 {
        fill: none;
      }

      .cls-2 {
        fill: #010101;
      }
    </style>
  </defs>
  <g id="Layer_1-2" data-name="Layer 1">
    <g>
      <rect class="cls-1" width="56.69" height="56.69"/>
      <path class="cls-2" d="M3.68,11.34c-.47,0-.85,.38-.85,.85v25.51c0,.47,.38,.85,.85,.85H7.94v2.55c0,.47,.38,.85,.85,.85h2.55v2.55c0,.47,.38,.86,.86,.85H53c.47,0,.86-.38,.85-.85V18.99c0-.47-.38-.85-.85-.85h-2.55v-2.56c0-.47-.39-.85-.86-.85h-2.55v-2.55c0-.47-.38-.85-.85-.85H3.68Zm.85,1.7H45.35v23.81H4.54V13.04Zm5.87,2.77c.05,.21,.08,.42,.08,.63,0,1.42-1.13,2.55-2.55,2.55-.22,0-.43-.03-.63-.08-.54-.14-1.07,.26-1.07,.82v10.43c0,.55,.52,.96,1.06,.82,.21-.05,.43-.08,.64-.08,1.42,0,2.55,1.13,2.55,2.55,0,.21-.03,.43-.09,.63-.14,.54,.26,1.07,.82,1.07h27.44c.56,0,.96-.53,.82-1.07-.05-.21-.08-.43-.08-.64,0-1.41,1.13-2.54,2.54-2.54,.22,0,.43,.03,.64,.08,.54,.14,1.07-.26,1.07-.82v-10.43c0-.56-.53-.96-1.07-.82-.21,.05-.42,.08-.63,.08-1.42,0-2.55-1.13-2.55-2.55,0-.22,.03-.42,.08-.63,.14-.54-.26-1.07-.82-1.07H11.18c-.57,0-.91,.56-.78,1.07Zm1.78,.63h25.51c0,2.34,1.91,4.25,4.25,4.25v8.51c-2.34,0-4.25,1.91-4.25,4.25H12.19c0-2.34-1.91-4.25-4.25-4.25v-8.51c2.34,0,4.25-1.91,4.25-4.25Zm34.86,21.26V16.44h1.7v23.81H9.63v-1.7H46.25c.48,0,.81-.42,.8-.85h0Zm-22.96-8.5h-1.7c-1.13,0-1.13,1.7,0,1.7h1.7v.85c0,1.13,1.7,1.13,1.7,0v-.85h.01c1.86,0,3.39-1.53,3.39-3.4s-1.53-3.4-3.4-3.4v-3.4s1.7,0,1.7,0c1.11-.03,1.11-1.68,0-1.7h-1.7v-.85c0-.48-.38-.87-.86-.87-.47,0-.85,.39-.84,.87v.85c-1.87,0-3.39,1.53-3.39,3.4s1.52,3.4,3.39,3.4v3.4Zm26.37-9.35h1.7v23.81H13.04v-1.7H49.6c.47,0,.86-.38,.86-.85V19.84Zm-28.07,2.55c0-.97,.74-1.7,1.69-1.7v3.4c-.96,0-1.69-.74-1.69-1.7h0Zm3.41,3.4c.96,0,1.7,.73,1.7,1.7s-.74,1.7-1.69,1.7v-3.4Z"/>
    </g>
  </g>
</svg>