<?xml version="1.0" encoding="UTF-8"?>
<svg id="Layer_2" data-name="Layer 2" xmlns="http://www.w3.org/2000/svg" viewBox="0 0 56.69 56.69">
  <defs>
    <style>
      .cls-1 {
        fill: none;
      }

      .cls-2 {
        fill: #010101;
      }
    </style>
  </defs>
  <g id="Layer_1-2" data-name="Layer 1">
    <g>
      <path class="cls-2" d="M55.03,2.95c-10.24,1.76-19.11,6.71-26.35,12.48-7.98-7.13-14.92-11.02-14.92-11.02-3.33-2.07-7.5-1.5-10.71,0C-.17,5.9-.17,10.61,3.04,11.26c7.05,2.76,13.24,6.41,18.66,10.4-9.58,9.53-14.88,18.99-14.88,18.99-2.07,3.33-1.5,7.5,0,10.71s6.21,3.21,6.85,0c3.75-9.58,9.13-17.59,14.81-24.18,16.45,14.68,23.46,30.72,22.97,25.42-2.21-12.92-9.51-23.64-17.11-31.67C47.48,8.04,59.76,2.51,55.03,2.95Z"/>
      <rect class="cls-1" width="56.69" height="56.69"/>
    </g>
  </g>
</svg>