<?xml version="1.0" encoding="UTF-8"?>
<svg id="Layer_2" data-name="Layer 2" xmlns="http://www.w3.org/2000/svg" viewBox="0 0 56.69 56.69">
  <defs>
    <style>
      .cls-1 {
        fill: none;
      }

      .cls-2 {
        fill: #010101;
      }
    </style>
  </defs>
  <g id="Layer_1-2" data-name="Layer 1">
    <g>
      <g>
        <polygon class="cls-2" points="22.83 5.22 17.34 20.28 39.36 20.28 33.86 5.22 22.83 5.22"/>
        <polygon class="cls-2" points="17.36 22.62 28.35 51.47 39.33 22.62 17.36 22.62"/>
        <path class="cls-2" d="M55.53,20.28c-3.15-4.04-10.53-13.36-12.12-15.06h-7.06l5.48,15.06h13.69Z"/>
        <path class="cls-2" d="M14.86,20.28l5.48-15.06h-7.01c-1.59,1.7-8.97,11.02-12.16,15.06H14.86Z"/>
        <path class="cls-2" d="M41.82,22.62l-10.31,27.08c6.64-7.26,19.81-22.01,24.01-27.08h-13.7Z"/>
        <path class="cls-2" d="M25.18,49.7L14.87,22.62H1.16c4.2,5.07,17.37,19.82,24.01,27.08Z"/>
      </g>
      <rect class="cls-1" width="56.69" height="56.69"/>
    </g>
  </g>
</svg>