<?xml version="1.0" encoding="UTF-8"?>
<svg id="Layer_2" data-name="Layer 2" xmlns="http://www.w3.org/2000/svg" viewBox="0 0 56.69 56.69">
  <defs>
    <style>
      .cls-1 {
        fill: none;
      }

      .cls-2 {
        fill: #010101;
      }
    </style>
  </defs>
  <g id="Layer_1-2" data-name="Layer 1">
    <g>
      <rect class="cls-1" width="56.69" height="56.69"/>
      <g id="a">
        <path class="cls-2" d="M31.42,2.43h-5.69v5.95c-5.69,1.44-8.96,4.43-9.79,8.97-.55,4.51,.91,8.12,4.36,10.82,.86,.66,2.69,1.6,5.48,2.8v10.52c-2.04-.6-4.34-1.87-6.9-3.79l-3.88,4.83c.75,1.44,2.14,2.69,4.18,3.75,1.98,1.06,4.17,1.77,6.55,2.11l.09,5.86h5.86l.04-5.91c4.54-1.03,7.56-3.39,9.06-7.07,1.44-4.05,1.21-7.32-.69-9.79-1.98-2.5-4.48-4.28-7.5-5.35l-1.16-.39V14.85c2.01,.37,4.1,1.41,6.25,3.1l3.06-5.13c-1.9-2.59-5-4.04-9.31-4.36V2.43m-5.74,13.11s.06-.04,.09-.04v7.81c-.55-.37-.96-.7-1.25-.99-2.16-2.67-1.77-4.93,1.16-6.77m8.58,22.29c-.17,1.78-1.12,2.98-2.85,3.58v-8.02c2.1,1.21,3.05,2.69,2.85,4.44Z"/>
      </g>
    </g>
  </g>
</svg>