<?xml version="1.0" encoding="UTF-8"?>
<svg id="Layer_2" data-name="Layer 2" xmlns="http://www.w3.org/2000/svg" viewBox="0 0 56.69 56.69">
  <defs>
    <style>
      .cls-1 {
        fill: #010101;
        fill-rule: evenodd;
      }

      .cls-2 {
        fill: none;
      }
    </style>
  </defs>
  <g id="Layer_1-2" data-name="Layer 1">
    <g>
      <path class="cls-1" d="M48.35,7.55c1.1,0,2,.9,2,2s-.9,2-2,2h-.03c-.22,0-.41,.18-.42,.4l-1.44,38.88c-.11,2.84-2.48,5.12-5.32,5.12H15.55c-2.84,0-5.21-2.29-5.32-5.12l-1.44-38.88c0-.22-.19-.4-.42-.4h-.03c-1.1,0-2-.9-2-2s.9-2,2-2h9.75c.22,0,.45-.17,.51-.38l.65-2.28c.67-2.34,3.05-4.14,5.48-4.14h7.21c2.44,0,4.81,1.79,5.48,4.14l.65,2.28c.06,.21,.29,.38,.51,.38h9.75Zm-21.6,11.2v27.2c0,.88,.72,1.6,1.6,1.6s1.6-.72,1.6-1.6V18.75c0-.88-.72-1.6-1.6-1.6s-1.6,.72-1.6,1.6Zm-8.8,.05l.8,27.2c.03,.88,.76,1.58,1.65,1.55,.88-.03,1.58-.76,1.55-1.65l-.8-27.2c-.03-.88-.76-1.58-1.65-1.55-.88,.03-1.58,.76-1.55,1.65Zm17.6-.09l-.8,27.2c-.03,.88,.67,1.62,1.55,1.65,.88,.03,1.62-.67,1.65-1.55l.8-27.2c.03-.88-.67-1.62-1.55-1.65-.88-.03-1.62,.67-1.65,1.55ZM23.06,7.55c-.22,0-.36-.17-.3-.38l.34-1.19c.18-.62,.99-1.23,1.64-1.23h7.21c.65,0,1.46,.61,1.64,1.23l.34,1.19c.06,.21-.07,.38-.3,.38h-10.57Z"/>
      <rect class="cls-2" width="56.69" height="56.69"/>
    </g>
  </g>
</svg>