<?xml version="1.0" encoding="UTF-8"?>
<svg id="Layer_2" data-name="Layer 2" xmlns="http://www.w3.org/2000/svg" viewBox="0 0 56.69 56.69">
  <defs>
    <style>
      .cls-1 {
        fill: #010101;
      }
    </style>
  </defs>
  <g id="Layer_1-2" data-name="Layer 1">
    <g>
      <path class="cls-1" d="M42.66,32.55c0-1.57,1.27-2.84,2.84-2.84s2.84,1.27,2.84,2.84v15.97c0,4.51-3.66,8.16-8.18,8.16H8.18c-4.52,0-8.18-3.66-8.18-8.16V16.58c0-4.51,3.66-8.16,8.18-8.16q11.47,0,17.33,0c1.57,0,2.84,1.27,2.84,2.84s-1.27,2.84-2.84,2.84q-5.86,0-17.33,0c-1.37,0-2.49,1.11-2.49,2.48v31.95c0,1.37,1.11,2.48,2.49,2.48h32c1.37,0,2.49-1.11,2.49-2.48v-15.97Z"/>
      <path class="cls-1" d="M45.81,6.86L24.54,28.17l-1.01,5.02,5.02-1L49.83,10.88l-4.02-4.02Zm2.01-6.03l8.04,8.03c1.11,1.11,1.11,2.9,0,4.01l-23.89,23.93c-.4,.4-.9,.67-1.46,.78l-10.06,2.01c-1.99,.4-3.74-1.35-3.35-3.34l2.01-10.04c.11-.55,.38-1.05,.77-1.45L43.79,.84c1.11-1.11,2.91-1.11,4.03,0Z"/>
      <polygon class="cls-1" points="36.38 11.84 40.41 7.83 48.94 16.35 44.92 20.36 36.38 11.84"/>
    </g>
  </g>
</svg>