<?xml version="1.0" encoding="UTF-8"?>
<svg id="Layer_2" data-name="Layer 2" xmlns="http://www.w3.org/2000/svg" viewBox="0 0 56.69 56.69">
  <defs>
    <style>
      .cls-1 {
        fill: none;
      }

      .cls-2 {
        fill: #010101;
      }
    </style>
  </defs>
  <g id="Layer_1-2" data-name="Layer 1">
    <g>
      <g>
        <path class="cls-2" d="M28.35,15.31c9.26-.01,17.81,4.97,22.37,13.03-7.04,12.35-22.75,16.67-35.11,9.63-4.02-2.29-7.34-5.61-9.63-9.63,4.56-8.06,13.11-13.05,22.37-13.03m0-3.26c-11.09,.02-21.2,6.34-26.07,16.29,7.02,14.4,24.38,20.38,38.78,13.36,5.82-2.84,10.52-7.54,13.36-13.36-4.87-9.96-14.98-16.28-26.07-16.29Z"/>
        <path class="cls-2" d="M28.35,18.49c-5.44-.04-9.88,4.34-9.92,9.78-.04,5.44,4.34,9.88,9.78,9.92s9.88-4.34,9.92-9.78c0-.02,0-.05,0-.07,.04-5.4-4.3-9.81-9.7-9.85-.02,0-.05,0-.07,0Zm-3.26,9.85c-1.8,0-3.26-1.46-3.26-3.26s1.46-3.26,3.26-3.26,3.26,1.46,3.26,3.26-1.46,3.26-3.26,3.26Z"/>
      </g>
      <rect class="cls-1" width="56.69" height="56.69"/>
    </g>
  </g>
</svg>