<?xml version="1.0" encoding="UTF-8"?>
<svg id="Layer_2" data-name="Layer 2" xmlns="http://www.w3.org/2000/svg" viewBox="0 0 56.69 56.69">
  <defs>
    <style>
      .cls-1 {
        fill: none;
      }
    </style>
  </defs>
  <g id="Layer_1-2" data-name="Layer 1">
    <g>
      <rect class="cls-1" width="56.69" height="56.69"/>
      <path d="M45.28,1.74H11.42c-2,0-3.63,1.63-3.63,3.63V53.74c0,.67,.54,1.21,1.21,1.21,.26,0,.52-.08,.73-.24l18.62-13.97,18.62,13.97c.53,.4,1.29,.29,1.69-.24,.16-.21,.24-.46,.24-.73V5.37c0-2-1.63-3.63-3.63-3.63Zm-8.6,18.11l-3.73,3.63,.88,5.13c.06,.33-.16,.64-.49,.7-.13,.02-.27,0-.38-.06l-4.61-2.42-4.61,2.42c-.3,.16-.66,.04-.82-.25-.06-.12-.08-.25-.06-.38l.88-5.13-3.73-3.63c-.24-.23-.24-.62-.01-.86,.09-.1,.21-.16,.35-.18l5.15-.75,2.3-4.67c.15-.3,.51-.42,.81-.27,.12,.06,.22,.16,.27,.27l2.3,4.67,5.15,.75c.33,.05,.56,.35,.51,.69-.02,.13-.08,.25-.18,.35Z"/>
    </g>
  </g>
</svg>