<?xml version="1.0" encoding="UTF-8"?>
<svg id="Layer_2" data-name="Layer 2" xmlns="http://www.w3.org/2000/svg" viewBox="0 0 56.69 56.69">
  <defs>
    <style>
      .cls-1 {
        fill: none;
      }

      .cls-2 {
        fill: #010101;
      }
    </style>
  </defs>
  <g id="Layer_1-2" data-name="Layer 1">
    <g>
      <path class="cls-2" d="M44.51,18.65c0-8.93-7.24-16.16-16.17-16.16S12.18,9.72,12.18,18.65c0,7.82,6.47,14.34,12.93,15.84v6.79h-3.23c-1.79,0-3.23,1.45-3.23,3.23s1.45,3.23,3.23,3.23h3.23v3.23c0,1.79,1.45,3.23,3.23,3.23s3.23-1.45,3.23-3.23v-3.23h3.23c1.79,0,3.23-1.45,3.23-3.23s-1.45-3.23-3.23-3.23h-3.23v-6.79c6.47-1.5,12.93-8.02,12.93-15.84Zm-25.87,0c0-5.35,4.34-9.7,9.7-9.7s9.7,4.35,9.7,9.7-4.35,9.7-9.7,9.7-9.7-4.34-9.7-9.7Z"/>
      <rect class="cls-1" width="56.69" height="56.69"/>
    </g>
  </g>
</svg>