<?xml version="1.0" encoding="UTF-8"?>
<svg id="Layer_2" data-name="Layer 2" xmlns="http://www.w3.org/2000/svg" viewBox="0 0 56.69 56.69">
  <defs>
    <style>
      .cls-1 {
        fill: none;
      }

      .cls-2 {
        fill: #010101;
      }
    </style>
  </defs>
  <g id="Layer_1-2" data-name="Layer 1">
    <g>
      <path class="cls-2" d="M49.16,15.98h-7.12v-4.11c0-3.51-2.85-6.36-6.36-6.36h-14.66c-3.51,0-6.36,2.85-6.36,6.36v4.11H7.54c-3.32,0-6.04,2.72-6.04,6.04v23.12c0,3.32,2.72,6.04,6.04,6.04H49.16c3.32,0,6.04-2.72,6.04-6.04V22.02c0-3.32-2.72-6.04-6.04-6.04Zm-11.22,20.3c0,.26-.22,.48-.48,.48h-5.91v5.91c0,.26-.22,.48-.48,.48h-5.43c-.26,0-.48-.22-.48-.48v-5.91h-5.91c-.26,0-.48-.22-.48-.48v-5.43c0-.26,.22-.48,.48-.48h5.91v-5.91c0-.26,.22-.48,.48-.48h5.43c.26,0,.48,.22,.48,.48v5.91h5.91c.26,0,.48,.22,.48,.48v5.43Zm.41-20.3H18.34v-4.11c0-1.47,1.2-2.67,2.67-2.67h14.66c1.47,0,2.67,1.2,2.67,2.67v4.11Z"/>
      <rect class="cls-1" width="56.69" height="56.69"/>
    </g>
  </g>
</svg>