<?xml version="1.0" encoding="UTF-8"?>
<svg id="Layer_2" data-name="Layer 2" xmlns="http://www.w3.org/2000/svg" viewBox="0 0 56.69 56.69">
  <defs>
    <style>
      .cls-1 {
        fill: none;
      }

      .cls-2 {
        fill: #010101;
      }
    </style>
  </defs>
  <g id="Layer_1-2" data-name="Layer 1">
    <g>
      <path class="cls-2" d="M43.62,8.63c-2.75,1.06-6.84,1.4-12.52-1.08-12.23-5.32-17.1,0-17.1,0v-2.86c0-1.52-1.23-2.75-2.75-2.75s-2.75,1.23-2.75,2.75V52c0,1.52,1.23,2.75,2.75,2.75s2.75-1.23,2.75-2.75v-18.92s4.87-5.32,17.1,0c9.19,4,14.23,.66,16.15-1.25,.62-.61,.96-1.45,.95-2.31V11.65c-.07-1.86-1.65-3.32-3.51-3.24-.37,.01-.73,.09-1.07,.22Z"/>
      <rect class="cls-1" width="56.69" height="56.69"/>
    </g>
  </g>
</svg>