<?xml version="1.0" encoding="UTF-8"?>
<svg id="Layer_2" data-name="Layer 2" xmlns="http://www.w3.org/2000/svg" viewBox="0 0 56.69 56.69">
  <defs>
    <style>
      .cls-1 {
        fill: #010101;
      }
    </style>
  </defs>
  <g id="Layer_1-2" data-name="Layer 1">
    <g>
      <path class="cls-1" d="M53.86,14.17h-7.94c1.42-1.42,2.27-3.4,2.27-5.67,0-4.82-3.69-8.5-8.5-8.5-2.83,0-7.94,2.55-11.34,5.95C24.94,2.55,19.84,0,17.01,0c-4.82,0-8.5,3.69-8.5,8.5,0,2.27,.85,4.25,2.27,5.67H2.83c-1.7,0-2.83,1.13-2.83,2.83v7.94c0,.28,.28,.57,.57,.57H24.38c.57,0,1.13-.57,1.13-1.13V15.31c0-.57,.57-1.13,1.13-1.13h3.4c.57,0,1.13,.57,1.13,1.13v9.07c0,.57,.57,1.13,1.13,1.13h23.81c.28,0,.57-.28,.57-.57v-7.94c0-1.7-1.13-2.83-2.83-2.83Zm-36.85-2.83c-1.7,0-2.83-1.13-2.83-2.83s1.13-2.83,2.83-2.83,6.8,3.4,8.22,5.1c-.85,.28-8.22,.57-8.22,.57Zm22.68,0s-7.37-.28-8.22-.57c1.7-1.98,6.52-5.1,8.22-5.1s2.83,1.13,2.83,2.83-1.13,2.83-2.83,2.83Z"/>
      <path class="cls-1" d="M24.38,31.18H3.4c-.28,0-.57,.28-.57,.57v22.11c0,1.7,1.13,2.83,2.83,2.83H24.38c.57,0,1.13-.57,1.13-1.13v-23.24c0-.57-.57-1.13-1.13-1.13Z"/>
      <path class="cls-1" d="M53.29,31.18h-20.98c-.57,0-1.13,.57-1.13,1.13v23.24c0,.57,.57,1.13,1.13,1.13h18.71c1.7,0,2.83-1.13,2.83-2.83V31.75c0-.28-.28-.57-.57-.57Z"/>
    </g>
  </g>
</svg>