<?xml version="1.0" encoding="UTF-8"?>
<svg id="Layer_2" data-name="Layer 2" xmlns="http://www.w3.org/2000/svg" viewBox="0 0 56.69 56.69">
  <defs>
    <style>
      .cls-1 {
        fill: #010101;
      }
    </style>
  </defs>
  <g id="Layer_1-2" data-name="Layer 1">
    <g>
      <path class="cls-1" d="M28.35,56.69c15.63,0,28.35-12.71,28.35-28.35S43.98,0,28.35,0,0,12.71,0,28.35s12.71,28.35,28.35,28.35ZM28.35,1.96c14.55,0,26.38,11.83,26.38,26.38s-11.83,26.38-26.38,26.38S1.96,42.9,1.96,28.35C1.96,13.8,13.8,1.96,28.35,1.96Z"/>
      <path class="cls-1" d="M22.17,51.98c-2.33-2.23-4.26-5.68-5.58-9.96H8.12c3.28,4.84,8.25,8.44,14.05,9.96Z"/>
      <path class="cls-1" d="M18.7,42.02c2.13,6.43,5.7,10.75,9.64,10.75s7.5-4.31,9.64-10.75H18.7Z"/>
      <path class="cls-1" d="M34.52,51.98c5.8-1.52,10.77-5.12,14.05-9.96h-8.47c-1.32,4.28-3.25,7.73-5.58,9.96Z"/>
      <path class="cls-1" d="M40.66,40.07h9.11c1.76-3.2,2.83-6.86,2.98-10.74h-10.73c-.07,3.86-.55,7.5-1.36,10.74Z"/>
      <path class="cls-1" d="M18.11,40.07h20.46c.87-3.22,1.4-6.89,1.48-10.74H16.64c.08,3.85,.6,7.51,1.47,10.74Z"/>
      <path class="cls-1" d="M14.68,29.32H3.95c.15,3.88,1.21,7.53,2.98,10.74h9.11c-.81-3.23-1.29-6.87-1.36-10.74Z"/>
      <path class="cls-1" d="M16.04,16.63H6.92c-1.76,3.22-2.82,6.86-2.97,10.74H14.68c.07-3.86,.55-7.49,1.36-10.74Z"/>
      <path class="cls-1" d="M38.57,16.63H18.11c-.87,3.23-1.4,6.89-1.48,10.74h23.42c-.08-3.85-.6-7.5-1.48-10.74Z"/>
      <path class="cls-1" d="M42.02,27.37h10.73c-.15-3.88-1.2-7.53-2.97-10.74h-9.12c.81,3.24,1.29,6.87,1.36,10.74Z"/>
      <path class="cls-1" d="M48.57,14.67c-3.28-4.84-8.25-8.44-14.05-9.96,2.33,2.23,4.26,5.68,5.58,9.96h8.47Z"/>
      <path class="cls-1" d="M37.99,14.67c-2.14-6.44-5.7-10.75-9.64-10.75s-7.5,4.31-9.64,10.75h19.29Z"/>
      <path class="cls-1" d="M22.17,4.71c-5.8,1.52-10.77,5.12-14.05,9.96h8.47c1.32-4.29,3.25-7.73,5.58-9.96Z"/>
    </g>
  </g>
</svg>