<?xml version="1.0" encoding="UTF-8"?>
<svg id="Layer_2" data-name="Layer 2" xmlns="http://www.w3.org/2000/svg" viewBox="0 0 56.69 56.69">
  <defs>
    <style>
      .cls-1 {
        fill: #010101;
        fill-rule: evenodd;
      }
    </style>
  </defs>
  <g id="Layer_1-2" data-name="Layer 1">
    <path class="cls-1" d="M28.44,0c15.56,0,28.26,12.7,28.26,28.44s-12.7,28.26-28.26,28.26S0,44,0,28.44,12.7,0,28.44,0Zm-5.54,27.54s-1.07-.18-1.25-.18c-1.79,.36-1.79,0-.18,1.07,1.07,.72,.72,.72,1.79,.54,.36,.18,.72,.18,1.07,.36v.72s.89,.54,1.07,.54h1.43c.18,0,1.61-.89-.89-1.61-.36,0-.89,0-1.43,.18-.18-.36-.36-.72-.72-1.07,0,0-1.07-.54-.89-.54Zm27.54-13.23c2.5,4.11,4.11,8.94,4.11,14.13,0,1.43-.18,3.04-.36,4.47-1.25-1.07-2.5-1.97-2.68-2.15-.54-.54-.54,.36-.89,1.43-.18,1.25-1.61,.18-2.68,.18s-1.79-1.43-1.79-1.43c-1.97-1.61-1.43-2.5-1.43-5.01,0-.72,.36-1.61,.89-1.97,1.25-1.43,.18-2.32,1.61-3.4,.54-.36,2.5-.89,2.5-.89,1.07-1.43,1.61-1.79-1.07-1.25-.18,.18-1.25,0-1.79-.36-.72-.54,.89-.89,.89-.89,.72-.89,1.43-1.61,2.15-2.32l.54-.54ZM28.44,2.32c2.5,0,4.83,.36,7.15,.89,.54,.72,1.43,1.79,1.61,1.97s.72,1.61,.72,1.61c-1.07,1.61-1.43,2.5-3.76,1.43-.72-.18-1.97-1.97-1.97-1.97,0,0-1.97-2.15-2.32-2.32-.72-.54-1.79-.18-2.32,.72,.36,.54,.54,.89,.89,1.43,1.61,0,1.61-.36,2.15,.89-.54,.18-1.07,.36-1.79,.54-1.61,1.07-1.07,1.07-2.86-.18,0,0-1.07-1.25-1.25-1.43s-.89-1.79-1.25-2.32c0-.18-.18-.54,0-.89,1.61-.18,3.22-.36,5.01-.36Zm.89,52.22c-1.79,0-3.58-.18-5.54-.36,.18-1.25,.18-2.32,.18-3.4,0-2.86,.72-3.4-1.61-5.01-.54-.89-1.25-1.97-1.97-2.86-1.61-1.61-1.07-1.43-.18-3.58,.18-.89,.36-1.79,.54-2.5-.36-.89-.54-1.79-.89-2.68-.72-.72-1.43-1.61-2.15-2.32-3.93-1.07-3.76-.54-6.62-3.58-.54-.89-1.07-1.79-1.79-2.68-1.97-2.32-1.61-1.97-2.32-4.83-.18-1.25-.36-2.5-.54-3.58-.18-.72-.36-1.43-.54-1.97C9.48,9.12,15.38,4.65,22.36,3.04c-.18,.89-.36,1.79-.54,2.86-4.29,3.4-6.44,4.29-1.25,6.26,1.25,1.97,.89,2.86,2.5,1.61,0-1.07-.18-2.15-.36-3.22,3.22-2.15,2.32-1.79,6.08,.18,.54,.54,1.07,1.07,1.61,1.61,2.5,1.07,2.68,.54,.54,2.15-.54-.18-1.25-.18-1.97-.36l-1.07,1.07c.89,1.97,1.43,1.79-.54,2.32-.54,.36-1.07,.89-1.61,1.25h-2.15v2.5c0,.54-1.61,1.97-1.61,1.97,0,0-.89,1.25-.36,1.97,.36,.72-.54,1.25-.54,1.25-.54-.54-.89-1.25-1.43-1.79-.72,0-1.61,.18-2.5,.36-.54,.36-1.07,.54-1.61,.89-.18,.54-.36,1.25-.36,1.79,.18,.89,.36,1.79,.72,2.68,.36,0,.89,0,1.43-.18,0-2.68-.54-2.68,1.61-.89,.18,.54,.18,1.07,.18,1.79,.72,.18,1.25,.36,1.79,.54,.18,.54,.18,1.25,.18,1.79,.89,.72,1.79,1.25,2.68,1.79,1.97,.36,4.11,.36,5.72,1.61,1.25,.72,2.5,1.25,3.93,1.79,0,.54,.18,1.07,.36,1.61,.72,.18,1.61,.18,2.32,.18,.89,.18,1.79,.18,2.68,.18v1.61c-.36,3.04-.54,2.5-2.68,4.47-.72,.54-1.43,1.07-2.15,1.79-1.79,2.5-1.25,2.15-4.11,3.22-.18,.89-.36,1.97-.54,2.86Z"/>
  </g>
</svg>