<?xml version="1.0" encoding="UTF-8"?>
<svg id="Layer_2" data-name="Layer 2" xmlns="http://www.w3.org/2000/svg" viewBox="0 0 56.69 56.69">
  <defs>
    <style>
      .cls-1 {
        fill: none;
      }

      .cls-2 {
        fill: #010101;
      }
    </style>
  </defs>
  <g id="Layer_1-2" data-name="Layer 1">
    <g>
      <path class="cls-2" d="M50.47,24.03H6.22c-2.38,0-4.32,1.93-4.32,4.32s1.93,4.32,4.32,4.32H50.47c2.38,0,4.32-1.93,4.32-4.32s-1.93-4.32-4.32-4.32ZM6.22,16.47H50.47c2.38,0,4.32-1.93,4.32-4.32s-1.93-4.32-4.31-4.32H6.22c-2.38,0-4.32,1.93-4.32,4.32s1.93,4.32,4.32,4.32Zm44.25,23.74H6.22c-2.38,0-4.32,1.93-4.32,4.32s1.93,4.32,4.32,4.32H50.47c2.38,0,4.32-1.93,4.32-4.32s-1.93-4.32-4.32-4.32Z"/>
      <rect class="cls-1" width="56.69" height="56.69"/>
    </g>
  </g>
</svg>