<?xml version="1.0" encoding="UTF-8"?>
<svg id="Layer_2" data-name="Layer 2" xmlns="http://www.w3.org/2000/svg" viewBox="0 0 56.69 56.69">
  <defs>
    <style>
      .cls-1 {
        fill: none;
      }

      .cls-2 {
        fill: #010101;
      }
    </style>
  </defs>
  <g id="Layer_1-2" data-name="Layer 1">
    <g>
      <g>
        <path class="cls-2" d="M1.48,49.26c0,2.65,2.23,4.95,4.88,4.95s4.88-2.23,4.88-4.95-2.23-4.95-4.88-4.95c-2.65,.07-4.88,2.3-4.88,4.95Z"/>
        <path class="cls-2" d="M1.48,28.35c0,2.65,2.23,4.95,4.88,4.95s4.88-2.23,4.88-4.95-2.23-4.95-4.88-4.95c-2.65,.07-4.88,2.3-4.88,4.95Z"/>
        <path class="cls-2" d="M1.48,7.43c0,2.65,2.23,4.95,4.88,4.95s4.88-2.23,4.88-4.95S9,2.49,6.35,2.49c-2.65,.07-4.88,2.3-4.88,4.95Z"/>
        <path class="cls-2" d="M50.27,12.38H20.09c-2.72,0-4.95-2.23-4.95-4.95h0c0-2.72,2.23-4.95,4.95-4.95h30.18c2.72,0,4.95,2.23,4.95,4.95h0c0,2.72-2.23,4.95-4.95,4.95Z"/>
        <path class="cls-2" d="M50.27,33.3H20.09c-2.72,0-4.95-2.23-4.95-4.95h0c0-2.72,2.23-4.95,4.95-4.95h30.18c2.72,0,4.95,2.23,4.95,4.95h0c0,2.72-2.23,4.95-4.95,4.95Z"/>
        <path class="cls-2" d="M50.27,54.21H20.09c-2.72,0-4.95-2.23-4.95-4.95h0c0-2.72,2.23-4.95,4.95-4.95h30.18c2.72,0,4.95,2.23,4.95,4.95h0c0,2.72-2.23,4.95-4.95,4.95Z"/>
      </g>
      <rect class="cls-1" width="56.69" height="56.69"/>
    </g>
  </g>
</svg>