<?xml version="1.0" encoding="UTF-8"?>
<svg id="Layer_2" data-name="Layer 2" xmlns="http://www.w3.org/2000/svg" viewBox="0 0 56.69 56.69">
  <defs>
    <style>
      .cls-1 {
        fill: none;
      }

      .cls-2 {
        fill: #010101;
      }
    </style>
  </defs>
  <g id="Layer_1-2" data-name="Layer 1">
    <g>
      <path class="cls-2" d="M54.93,19.5h0c-.39-6.55-4.62-11.86-11.01-13.83-5.52-1.7-11.3-.5-15.57,3.05-4.27-3.55-10.06-4.74-15.57-3.05C6.38,7.64,2.15,12.95,1.76,19.5c-.76,12.43,8.62,19.15,18.53,26.26,.49,.35,.98,.7,1.47,1.05,.3,.21,.61,.44,.91,.65,1.27,.91,2.46,1.76,3.63,2.68l2.05,1.64,2.06-1.64c1.16-.93,2.36-1.78,3.63-2.68,.3-.21,.61-.44,.91-.65,.49-.35,.98-.7,1.47-1.05,9.91-7.1,19.28-13.83,18.52-26.26ZM17.19,14.24c-.75,0-1.5,.11-2.17,.32-2.64,.81-4.25,2.79-4.41,5.44-.14,2.32,.34,4.3,1.53,6.22,.49,.8,.24,1.84-.54,2.33-.28,.17-.59,.26-.89,.26-.56,0-1.12-.29-1.44-.8-1.57-2.51-2.23-5.2-2.05-8.22,.24-4.07,2.79-7.24,6.8-8.48,.99-.31,2.09-.47,3.17-.47,.94,0,1.69,.76,1.69,1.69,0,.94-.76,1.7-1.69,1.7Z"/>
      <rect class="cls-1" width="56.69" height="56.69"/>
    </g>
  </g>
</svg>