<?xml version="1.0" encoding="UTF-8"?>
<svg id="Layer_2" data-name="Layer 2" xmlns="http://www.w3.org/2000/svg" viewBox="0 0 56.69 56.69">
  <defs>
    <style>
      .cls-1 {
        fill: none;
      }

      .cls-2 {
        fill: #010101;
      }
    </style>
  </defs>
  <g id="Layer_1-2" data-name="Layer 1">
    <g>
      <path class="cls-2" d="M54.43,18.9v4.17c-.04,.09-.07,.19-.09,.29-.21,1.66-.68,3.29-1.41,4.8-1.59,3.3-3.73,6.3-6.32,8.89-5.28,5.5-11.37,9.96-17.84,13.92-.23,.18-.55,.18-.78,0-5.2-3.11-10.09-6.71-14.61-10.76-3.24-2.85-6.05-6.15-8.36-9.79-2.57-4.04-3.39-8.95-2.27-13.61C5.12,6.29,18.23,1.98,26.4,9.04c.7,.6,1.31,1.3,2.01,1.99,.04-.07,.09-.14,.14-.21,3.65-4.08,8.16-5.91,13.56-5,5.92,.99,9.8,4.53,11.69,10.22,.26,.94,.47,1.9,.62,2.86Z"/>
      <rect class="cls-1" width="56.69" height="56.69"/>
    </g>
  </g>
</svg>