<?xml version="1.0" encoding="UTF-8"?>
<svg id="Layer_2" data-name="Layer 2" xmlns="http://www.w3.org/2000/svg" viewBox="0 0 56.69 56.69">
  <defs>
    <style>
      .cls-1 {
        fill: none;
      }

      .cls-2 {
        fill: #010101;
      }
    </style>
  </defs>
  <g id="Layer_1-2" data-name="Layer 1">
    <g>
      <path class="cls-2" d="M35.36,9.94V5.04l7.53,7.53h-4.9c-.7,0-1.37-.28-1.86-.77-.49-.49-.77-1.16-.77-1.86h0Zm5.26,21.92c2.79,0,5.47,1.11,7.44,3.08s3.08,4.65,3.08,7.44-1.11,5.47-3.08,7.44-4.65,3.08-7.44,3.08-5.47-1.11-7.44-3.08c-1.97-1.97-3.08-4.65-3.08-7.44,0-2.79,1.11-5.46,3.08-7.44,1.97-1.97,4.65-3.08,7.44-3.08h0Zm.41,9.64l-4.12-4.94c-.31-.37-.86-.42-1.23-.11-.37,.31-.42,.86-.11,1.23l4.38,5.26h0s0,0,0,0c0,0,0,0,0,0,.02,.02,.03,.04,.05,.06,0,0,.02,.02,.03,.02,.01,.01,.03,.02,.04,.04,.01,0,.02,.02,.03,.02,.01,0,.03,.02,.04,.03,.01,0,.02,.01,.03,.02,.02,0,.03,.02,.05,.02,.01,0,.02,.01,.03,.02,.02,0,.04,.01,.06,.02,0,0,.02,0,.03,.01,.02,0,.04,.01,.07,.02,0,0,.01,0,.02,0,.03,0,.05,0,.08,.01,0,0,0,0,.01,0h0s.06,0,.09,0h6.14c.48,0,.88-.39,.88-.88s-.39-.88-.88-.88h-5.73ZM5.55,50.26V6.43c0-.7,.28-1.37,.77-1.86,.49-.49,1.16-.77,1.86-.77h25.42v6.14c0,1.16,.46,2.28,1.29,3.1,.82,.82,1.94,1.28,3.1,1.29h6.14V30.61c-3.85-1.15-8.02-.34-11.17,2.17-3.14,2.51-4.86,6.4-4.59,10.41,.27,4.01,2.48,7.64,5.93,9.71H8.18c-.7,0-1.37-.28-1.86-.77-.49-.49-.77-1.16-.77-1.86h0Zm19.29-5.26c0-.23-.09-.46-.26-.62s-.39-.26-.62-.26h-3.51c-.48,0-.88,.39-.88,.88s.39,.88,.88,.88h3.51c.23,0,.46-.09,.62-.26s.26-.39,.26-.62Zm0-5.26c0-.23-.09-.46-.26-.62s-.39-.26-.62-.26h-5.26c-.48,0-.88,.39-.88,.88s.39,.88,.88,.88h5.26c.23,0,.46-.09,.62-.26s.26-.39,.26-.62Zm7.01-10.52c0-.23-.09-.46-.26-.62s-.39-.26-.62-.26h-7.01c-.48,0-.88,.39-.88,.88s.39,.88,.88,.88h7.01c.23,0,.46-.09,.62-.26s.26-.39,.26-.62Zm8.77-5.26c0-.23-.09-.46-.26-.62s-.39-.26-.62-.26h-8.77c-.48,0-.88,.39-.88,.88s.39,.88,.88,.88h8.77c.23,0,.46-.09,.62-.26s.26-.39,.26-.62Zm-21.92-6.14c-.48,0-.88,.39-.88,.88s.39,.88,.88,.88h21.04c.48,0,.88-.39,.88-.88s-.39-.88-.88-.88H18.7Zm-9.64-4.38c0,.23,.09,.46,.26,.62s.39,.26,.62,.26h10.52c.48,0,.88-.39,.88-.88s-.39-.88-.88-.88H9.94c-.48,0-.88,.39-.88,.88Zm0,5.26c0,.23,.09,.46,.26,.62s.39,.26,.62,.26h5.26c.48,0,.88-.39,.88-.88s-.39-.88-.88-.88h-5.26c-.48,0-.88,.39-.88,.88Zm0,5.26c0,.23,.09,.46,.26,.62s.39,.26,.62,.26H27.47c.48,0,.88-.39,.88-.88s-.39-.88-.88-.88H9.94c-.48,0-.88,.39-.88,.88Zm0,5.26c0,.23,.09,.46,.26,.62s.39,.26,.62,.26h10.52c.48,0,.88-.39,.88-.88s-.39-.88-.88-.88H9.94c-.48,0-.88,.39-.88,.88Zm0,5.26c0,.23,.09,.46,.26,.62s.39,.26,.62,.26h15.78c.48,0,.88-.39,.88-.88s-.39-.88-.88-.88H9.94c-.48,0-.88,.39-.88,.88Zm0,5.26c0,.23,.09,.46,.26,.62s.39,.26,.62,.26h5.26c.48,0,.88-.39,.88-.88s-.39-.88-.88-.88h-5.26c-.48,0-.88,.39-.88,.88Zm0,5.26c0,.23,.09,.46,.26,.62s.39,.26,.62,.26h7.01c.48,0,.88-.39,.88-.88s-.39-.88-.88-.88h-7.01c-.48,0-.88,.39-.88,.88Z"/>
      <rect class="cls-1" width="56.69" height="56.69"/>
    </g>
  </g>
</svg>