<?xml version="1.0" encoding="UTF-8"?>
<svg id="Layer_2" data-name="Layer 2" xmlns="http://www.w3.org/2000/svg" viewBox="0 0 56.69 56.69">
  <defs>
    <style>
      .cls-1 {
        fill: #010101;
      }
    </style>
  </defs>
  <g id="Layer_1-2" data-name="Layer 1">
    <path class="cls-1" d="M55.9,28.44L30.43,.75c-.45-.48-1.08-.75-1.75-.75s-1.3,.27-1.75,.75L.64,28.59c-.65,.68-.82,1.68-.44,2.54,.38,.86,1.24,1.41,2.19,1.41h6.76v20.13c0,2.22,1.77,4.03,4.02,4.03h4.83c1.51,0,2.73-1.2,2.73-2.68v-10.06c0-1.48,1.22-2.68,2.73-2.68h9.54c1.51,0,2.73,1.2,2.73,2.68v10.06c0,1.48,1.22,2.68,2.73,2.68h4.7c2.26,0,4.15-1.8,4.15-4.03v-20.13h6.99s.01,0,.01,0c1.32,0,2.38-1.05,2.38-2.35,0-.7-.31-1.32-.79-1.75Z"/>
  </g>
</svg>