<?xml version="1.0" encoding="UTF-8"?>
<svg id="Layer_2" data-name="Layer 2" xmlns="http://www.w3.org/2000/svg" viewBox="0 0 56.69 56.69">
  <defs>
    <style>
      .cls-1 {
        fill: #010101;
      }
    </style>
  </defs>
  <g id="Layer_1-2" data-name="Layer 1">
    <g>
      <path class="cls-1" d="M56.33,21.24L28.83,.26c-.29-.22-.68-.22-.97,0L.36,21.24c-.18,.14-.31,.35-.35,.59-.04,.24,.01,.49,.14,.69l3.75,5.83c.16,.26,.43,.39,.69,.39,.17,0,.34-.05,.48-.17L28.35,10.81l23.27,17.76c.38,.29,.91,.19,1.18-.23l3.75-5.83c.13-.2,.18-.45,.14-.69-.04-.24-.16-.45-.35-.59Z"/>
      <path class="cls-1" d="M49.5,30.56L28.83,14.79c-.29-.22-.68-.22-.97,0L7.08,30.65c-.23,.17-.36,.45-.36,.75v24.37c0,.51,.38,.92,.84,.92h14.46c.47,0,.84-.41,.84-.92v-21.24h10.95v21.24c0,.51,.38,.92,.84,.92h14.35c.47,0,.84-.41,.84-.92V31.32c0-.3-.13-.58-.36-.75Z"/>
      <path class="cls-1" d="M41.99,7.15l6.47,4.94c.15,.11,.31,.17,.48,.17,.13,0,.27-.03,.39-.1,.28-.16,.45-.47,.45-.82V.92c0-.51-.38-.92-.84-.92h-6.47c-.47,0-.84,.41-.84,.92V6.4c0,.3,.13,.58,.36,.75Z"/>
    </g>
  </g>
</svg>