<?xml version="1.0" encoding="UTF-8"?>
<svg id="Layer_2" data-name="Layer 2" xmlns="http://www.w3.org/2000/svg" viewBox="0 0 56.69 56.69">
  <defs>
    <style>
      .cls-1 {
        fill: #010101;
      }
    </style>
  </defs>
  <g id="Layer_1-2" data-name="Layer 1">
    <path class="cls-1" d="M8.3,8.3c-11.07,11.07-11.07,29.02,0,40.09,11.07,11.07,29.02,11.07,40.09,0,11.07-11.07,11.07-29.02,0-40.09C37.32-2.77,19.37-2.77,8.3,8.3Zm21.18,3.59c2.39,0,4.31,1.97,4.31,4.37s-1.97,4.37-4.31,4.37-4.37-1.97-4.37-4.43c0-2.39,1.97-4.31,4.37-4.31Zm6.16,29.26c-.12,.36-.36,.78-.6,1.02-1.56,1.62-3.47,2.57-5.74,2.57-1.08,0-2.09,0-3.17-.18-1.74-.24-3.95-2.39-3.65-4.67,.24-1.56,.48-3.11,.72-4.67,.48-2.69,.96-5.44,1.44-8.14,0-.18,.06-.36,.06-.54,0-1.14-.36-1.56-1.5-1.68-.48-.06-.96-.12-1.44-.24-.54-.18-.84-.66-.78-1.08,.06-.48,.36-.78,.96-.9,.3-.06,.66-.06,1.02-.06h8.26c1.02,0,1.62,.48,1.62,1.5,0,.84-.12,1.68-.3,2.51-.54,3.11-1.14,6.16-1.68,9.27-.18,1.02-.42,2.03-.54,3.05-.06,.48,0,1.02,.12,1.5,.18,.66,.66,1.02,1.32,.96,.54-.06,1.08-.24,1.62-.48,.42-.18,.78-.48,1.2-.6,.72-.24,1.26,.18,1.08,.84Z"/>
  </g>
</svg>