<?xml version="1.0" encoding="UTF-8"?>
<svg id="Layer_2" data-name="Layer 2" xmlns="http://www.w3.org/2000/svg" viewBox="0 0 56.69 56.69">
  <defs>
    <style>
      .cls-1 {
        fill: none;
      }

      .cls-2 {
        fill: #010101;
      }
    </style>
  </defs>
  <g id="Layer_1-2" data-name="Layer 1">
    <g>
      <rect class="cls-1" width="56.69" height="56.69"/>
      <path class="cls-2" d="M43.42,15.08c-5.39,0-10.04,3.22-12.12,7.84H6.03L0,27.8l8.44,5.97,3.62-3.02,3.62,3.02,3.62-3.02,3.62,3.02h8.39c2.07,4.62,6.73,7.84,12.12,7.84,7.33,0,13.27-5.94,13.27-13.27s-5.94-13.27-13.27-13.27Zm4.22,9.65c2,0,3.62,1.62,3.62,3.62s-1.62,3.62-3.62,3.62-3.62-1.62-3.62-3.62,1.62-3.62,3.62-3.62Z"/>
    </g>
  </g>
</svg>