<?xml version="1.0" encoding="UTF-8"?>
<svg id="Layer_2" data-name="Layer 2" xmlns="http://www.w3.org/2000/svg" viewBox="0 0 56.69 56.69">
  <defs>
    <style>
      .cls-1 {
        fill: none;
      }

      .cls-2 {
        fill: #010101;
      }
    </style>
  </defs>
  <g id="Layer_1-2" data-name="Layer 1">
    <g>
      <path class="cls-2" d="M28.47,48.76c.8,0,3.38-1.07,7.06-4.48,5.86-5.39,12.69-14.86,12.69-23.78C48.22,9.52,39.32,.63,28.35,.63S8.47,9.52,8.47,20.5c0,14.01,16.32,27.96,19.99,28.26Zm-.12-40.1c5.23,0,9.47,4.24,9.47,9.47s-4.24,9.47-9.47,9.47-9.47-4.24-9.47-9.47c0-5.23,4.24-9.47,9.47-9.47Zm21.6,41.96c0,1.85-7.62,5.45-21.6,5.45s-21.6-3.6-21.6-5.45c0-1.24,3.57-3.54,11.51-4.73,.14-.02,.27-.07,.4-.13,3.73,3.52,7.37,5.78,9.57,5.94h.28c2.97,0,7.3-3.66,9.05-5.26,.22-.2,.44-.42,.65-.63,.07,.02,.15,.04,.23,.06,7.95,1.21,11.51,3.51,11.51,4.75Z"/>
      <rect class="cls-1" width="56.69" height="56.69"/>
    </g>
  </g>
</svg>