<?xml version="1.0" encoding="UTF-8"?>
<svg id="Layer_2" data-name="Layer 2" xmlns="http://www.w3.org/2000/svg" viewBox="0 0 56.69 56.69">
  <defs>
    <style>
      .cls-1 {
        fill: #010101;
      }
    </style>
  </defs>
  <g id="Layer_1-2" data-name="Layer 1">
    <g>
      <path class="cls-1" d="M28.35,27.27c-1.6,0-2.89,1.29-2.89,2.89,0,1.09,.6,2.03,1.48,2.53v2.94c0,.89,.61,1.61,1.37,1.61s1.37-.73,1.38-1.61v-2.9c.93-.49,1.56-1.45,1.56-2.56,0-1.6-1.29-2.89-2.89-2.89Z"/>
      <path class="cls-1" d="M28.35,12.63c-4.49,0-7.57,3.84-7.6,9.3h15.2c-.03-5.46-3.11-9.3-7.6-9.3Z"/>
      <path class="cls-1" d="M28.35,0C12.69,0,0,12.69,0,28.35s12.69,28.35,28.35,28.35,28.35-12.69,28.35-28.35S44,0,28.35,0Zm15.38,40.55c0,1.77-1.45,3.22-3.23,3.22H16.19c-1.77,0-3.22-1.45-3.22-3.22v-15.41c0-1.77,1.45-3.23,3.22-3.23h.62c.04-7.66,4.87-12.79,11.53-12.79s11.49,5.13,11.53,12.79h.62c1.77,0,3.23,1.45,3.23,3.23v15.41Z"/>
    </g>
  </g>
</svg>