<?xml version="1.0" encoding="UTF-8"?>
<svg id="Layer_2" data-name="Layer 2" xmlns="http://www.w3.org/2000/svg" viewBox="0 0 56.69 56.69">
  <defs>
    <style>
      .cls-1 {
        fill: #010101;
        fill-rule: evenodd;
      }

      .cls-2 {
        fill: none;
      }
    </style>
  </defs>
  <g id="Layer_1-2" data-name="Layer 1">
    <g>
      <path class="cls-1" d="M45.34,9.29H11.5c-4.73,0-8.54,3.81-8.54,8.54v21.04c0,4.73,3.81,8.54,8.54,8.54H45.34c4.57,0,8.38-3.81,8.38-8.54V17.83c0-4.73-3.81-8.54-8.38-8.54Zm3.35,12.35l-16.77,11.13c-1.07,.61-2.29,1.07-3.51,1.07-1.37,0-2.59-.46-3.66-1.07L7.99,21.64c-.76-.76-1.07-1.98-.3-3.05,.61-.76,1.83-1.07,2.9-.46l16.77,11.28c.61,.46,1.68,.46,2.29,0l16.77-11.28c1.07-.61,2.29-.3,2.9,.76,.46,.76,.3,1.98-.61,2.74Z"/>
      <rect class="cls-2" width="56.69" height="56.69"/>
    </g>
  </g>
</svg>