<?xml version="1.0" encoding="UTF-8"?>
<svg id="Layer_2" data-name="Layer 2" xmlns="http://www.w3.org/2000/svg" viewBox="0 0 56.69 56.69">
  <defs>
    <style>
      .cls-1 {
        fill-rule: evenodd;
      }

      .cls-1, .cls-2 {
        fill: #010101;
      }

      .cls-3 {
        fill: none;
      }
    </style>
  </defs>
  <g id="Layer_1-2" data-name="Layer 1">
    <g>
      <rect class="cls-3" width="56.69" height="56.69"/>
      <g>
        <path class="cls-1" d="M27.76,37.34v13.55c0,1.64-1.4,2.8-2.8,2.8h0c-1.64,0-3.04-1.17-3.04-2.8V19.82h-.7v13.79c0,2.34-4.67,3.04-4.67,0V17.25c0-1.17,.93-3.04,2.1-3.04h19.4c1.17,0,2.1,1.87,2.1,3.04v16.36c0,3.04-4.67,2.34-4.67,0v-13.79h-.7v31.08c0,1.64-1.4,2.8-3.04,2.8h0c-1.4,0-2.8-1.17-2.8-2.8v-13.55h-1.17Z"/>
        <circle class="cls-2" cx="28.23" cy="8.13" r="5.14"/>
      </g>
    </g>
  </g>
</svg>