<?xml version="1.0" encoding="UTF-8"?>
<svg id="Layer_2" data-name="Layer 2" xmlns="http://www.w3.org/2000/svg" viewBox="0 0 56.69 56.69">
  <defs>
    <style>
      .cls-1 {
        fill: #010101;
        fill-rule: evenodd;
      }

      .cls-2 {
        fill: none;
      }
    </style>
  </defs>
  <g id="Layer_1-2" data-name="Layer 1">
    <g>
      <path class="cls-1" d="M31.71,43.06c2.52-2.5,3.78-5.53,3.78-9.09s-1.26-6.57-3.78-9.09c-2.52-2.52-5.55-3.78-9.09-3.78s-6.6,1.26-9.12,3.78c-2.5,2.52-3.75,5.55-3.75,9.09s1.25,6.59,3.75,9.09c2.52,2.52,5.56,3.78,9.12,3.78,3.54,0,6.57-1.26,9.09-3.78ZM36.32,2.3c.22-.23,.5-.35,.86-.35h16.53c.33,0,.62,.12,.86,.35,.24,.24,.36,.53,.36,.89V19.68c0,.33-.12,.62-.36,.86-.23,.24-.52,.35-.86,.35h-5.49c-.35,0-.63-.12-.83-.35-.26-.24-.38-.52-.38-.86v-4.34l-7.11,7.05c2.34,3.44,3.51,7.3,3.51,11.57,0,5.75-2.03,10.64-6.08,14.7s-8.95,6.08-14.7,6.08-10.64-2.03-14.7-6.08c-4.09-4.05-6.14-8.95-6.14-14.7s2.05-10.65,6.14-14.73c4.05-4.05,8.95-6.08,14.7-6.08,4.27,0,8.18,1.2,11.72,3.6l6.91-6.91h-4.07c-.35,0-.64-.12-.86-.35-.24-.24-.36-.53-.36-.89V3.18c0-.35,.12-.65,.35-.89Z"/>
      <rect class="cls-2" width="56.69" height="56.69"/>
    </g>
  </g>
</svg>