<?xml version="1.0" encoding="UTF-8"?>
<svg id="Layer_2" data-name="Layer 2" xmlns="http://www.w3.org/2000/svg" viewBox="0 0 56.69 56.69">
  <defs>
    <style>
      .cls-1 {
        fill: #010101;
      }
    </style>
  </defs>
  <g id="Layer_1-2" data-name="Layer 1">
    <path class="cls-1" d="M28.35,0C12.69,0,0,12.69,0,28.35c0,15.66,12.69,28.35,28.35,28.35h0c15.66,0,28.35-12.69,28.35-28.35h0c0-15.66-12.69-28.35-28.35-28.35ZM12.56,16.78h31.57c.87,0,1.57,.7,1.57,1.57v20c0,.87-.7,1.57-1.57,1.57H12.56c-.87,0-1.57-.71-1.57-1.57V18.35c0-.86,.7-1.57,1.57-1.57Zm1.57,3.14v16.86h28.43V19.92H14.13Z"/>
  </g>
</svg>