<?xml version="1.0" encoding="UTF-8"?>
<svg id="Layer_2" data-name="Layer 2" xmlns="http://www.w3.org/2000/svg" viewBox="0 0 56.69 56.69">
  <defs>
    <style>
      .cls-1 {
        fill: none;
      }

      .cls-2 {
        fill: #010101;
      }
    </style>
  </defs>
  <g id="Layer_1-2" data-name="Layer 1">
    <g>
      <g>
        <path class="cls-2" d="M21.3,43.37l2.98-1.57-4.89-2.54-.19,.1c-2.8,1.47-3.88,4.94-2.4,7.74,.62,1.17,1.62,2.09,2.83,2.61,.28,.12,.58,.18,.88,.18h.1c1.25-.05,2.22-1.11,2.17-2.36-.04-.87-.57-1.65-1.38-1.99-.61-.26-.89-.97-.63-1.58,.11-.25,.3-.46,.54-.59h0Z"/>
        <path class="cls-2" d="M40.57,29.58c-.08-2.22-1.44-4.18-3.49-5.03-.28-.11-.58-.16-.88-.16h-.1c-1.25,.06-2.22,1.11-2.16,2.36,.04,.87,.58,1.65,1.38,1.99,.61,.26,.89,.97,.63,1.58-.11,.25-.3,.46-.54,.59l-7.06,3.68-7.05-3.7c-.59-.31-.81-1.04-.5-1.62,.13-.24,.34-.43,.59-.54,1.14-.51,1.65-1.85,1.14-3-.34-.77-1.09-1.28-1.92-1.33h-.1c-.3,0-.6,.06-.88,.18-2.91,1.24-4.27,4.6-3.04,7.52,.52,1.22,1.44,2.22,2.61,2.83l7.24,3.76,8.97,4.72c.59,.31,.81,1.04,.5,1.62-.13,.24-.34,.43-.59,.54-1.13,.53-1.62,1.88-1.09,3.01,.35,.74,1.07,1.24,1.88,1.3h.1c.3,0,.6-.06,.88-.18,2.91-1.24,4.27-4.6,3.04-7.52-.52-1.22-1.44-2.22-2.61-2.83l-4.26-2.27,4.11-2.15h0l.16-.08c1.95-1.01,3.14-3.06,3.05-5.26Z"/>
        <path class="cls-2" d="M36.28,3.17c1.61,3.4,.85,7.45-1.87,10.05v7.63c.49-.16,1-.25,1.51-.28h.27c.81,0,1.62,.16,2.37,.48,1.18,.5,2.24,1.23,3.13,2.15,2.55-.17,4.53-2.29,4.53-4.84v-2.06h.03c2.68,0,4.86-2.18,4.86-4.86h0v-2.05h.03c2.68,0,4.86-2.18,4.86-4.86h0V1.9h-13.89c-2.01,0-4,.43-5.83,1.27Z"/>
        <path class="cls-2" d="M5.55,9.39h.03v2.05c0,2.68,2.18,4.86,4.86,4.86h.03v2.05c0,2.55,1.98,4.67,4.53,4.84,.84-.86,1.82-1.56,2.92-2.05,.54-.25,1.11-.42,1.7-.52,.37-.05,.75-.07,1.13-.06,.51,.02,1.02,.12,1.51,.27v-7.62c-2.71-2.6-3.45-6.65-1.84-10.05-1.83-.84-3.82-1.27-5.83-1.27H.69v2.63c0,2.68,2.18,4.86,4.86,4.86h0Z"/>
        <path class="cls-2" d="M29.07,30.61c.52,.27,1.16,.07,1.43-.45,.08-.15,.12-.31,.12-.47V11.3c1.67-.85,2.71-2.56,2.71-4.43-.03-2.67-2.15-4.86-4.82-4.97-2.74-.09-5.04,2.06-5.14,4.8-.07,1.93,.99,3.72,2.71,4.6V29.08l2.98,1.53Z"/>
        <path class="cls-2" d="M30.62,52.53v-7.36l-4.53-2.37v9.73c0,1.25,1.01,2.27,2.27,2.27s2.27-1.01,2.27-2.27Z"/>
      </g>
      <rect class="cls-1" width="56.69" height="56.69"/>
    </g>
  </g>
</svg>