<?xml version="1.0" encoding="UTF-8"?>
<svg id="Layer_2" data-name="Layer 2" xmlns="http://www.w3.org/2000/svg" viewBox="0 0 56.69 56.69">
  <g id="Layer_1-2" data-name="Layer 1">
    <path d="M28.37,56.69c-7.25,0-14.53-2.77-20.07-8.3h0C2.78,42.86,0,35.6,0,28.36H0c0-7.25,2.77-14.53,8.3-20.06h0C13.83,2.77,21.1,0,28.35,0h0c7.25,0,14.51,2.77,20.04,8.3h0l-1.51,1.51-1.51,1.51c-4.7-4.7-10.85-7.05-17.02-7.05h0c-6.17,0-12.32,2.34-17.02,7.05h0c-4.71,4.71-7.05,10.86-7.05,17.04h0c0,6.16,2.35,12.3,7.05,17h0c4.71,4.71,10.87,7.05,17.05,7.05h0c6.16,0,12.29-2.35,16.99-7.05h0c4.7-4.7,7.05-10.84,7.05-16.99h0c0-6.18-2.34-12.34-7.05-17.05h0l1.51-1.51,1.51-1.51c5.54,5.54,8.31,12.82,8.3,20.07h0c0,7.24-2.78,14.5-8.3,20.02h0c-5.52,5.52-12.77,8.3-20.01,8.3h0s0,0,0,0h0ZM14.75,26.3c-1.13,0-2.05,.92-2.05,2.05s.92,2.05,2.05,2.05h27.2c1.13,0,2.05-.92,2.05-2.05,0-1.13-.92-2.05-2.05-2.05H14.75Z"/>
  </g>
</svg>