<?xml version="1.0" encoding="UTF-8"?>
<svg id="Layer_2" data-name="Layer 2" xmlns="http://www.w3.org/2000/svg" viewBox="0 0 56.69 56.69">
  <defs>
    <style>
      .cls-1 {
        fill: none;
      }

      .cls-2 {
        fill: #010101;
      }
    </style>
  </defs>
  <g id="Layer_1-2" data-name="Layer 1">
    <g>
      <path class="cls-2" d="M37.93,1.78H18.76c-3.25,0-5.89,2.64-5.89,5.89h0V49.02c0,3.25,2.63,5.89,5.89,5.9h19.18c3.25,0,5.89-2.64,5.89-5.89h0V7.68c0-3.25-2.63-5.89-5.89-5.9h0Zm-13.6,2.29h8.03c.32,.02,.55,.3,.53,.62-.02,.28-.25,.51-.53,.53h-8.03c-.32-.02-.55-.3-.53-.62,.02-.28,.25-.51,.53-.53Zm4.14,49.61c-.91,0-1.65-.73-1.65-1.64s.73-1.65,1.64-1.65,1.65,.73,1.65,1.64c0,0,0,.02,0,.02-.01,.9-.74,1.63-1.64,1.63h0Zm13.3-5.34c0,.42-.34,.75-.75,.75,0,0,0,0,0,0H15.68c-.42,0-.75-.33-.75-.75,0,0,0,0,0,0V8.33c0-.42,.34-.75,.75-.75,0,0,0,0,0,0h25.34c.42,0,.75,.33,.75,.75,0,0,0,0,0,0V48.35Z"/>
      <rect class="cls-1" width="56.69" height="56.69"/>
    </g>
  </g>
</svg>