<?xml version="1.0" encoding="UTF-8"?>
<svg id="Layer_2" data-name="Layer 2" xmlns="http://www.w3.org/2000/svg" viewBox="0 0 56.69 56.69">
  <defs>
    <style>
      .cls-1 {
        fill: none;
      }

      .cls-2 {
        fill: #010101;
      }
    </style>
  </defs>
  <g id="Layer_1-2" data-name="Layer 1">
    <g>
      <g>
        <polygon class="cls-2" points="35.59 48.2 33.84 44.72 22.85 44.72 21.1 48.2 18.44 48.2 18.44 50.91 38.26 50.91 38.26 48.2 35.59 48.2"/>
        <path class="cls-2" d="M3.37,40.53c0,1.35,1.09,2.44,2.44,2.44H50.88c1.35,0,2.44-1.09,2.44-2.44v-5.03H3.37v5.03Zm24.98-2.51c.67,0,1.22,.55,1.22,1.22s-.55,1.22-1.22,1.22-1.22-.55-1.22-1.22,.55-1.22,1.22-1.22Z"/>
        <path class="cls-2" d="M53.32,33.46V8.23c0-1.35-1.09-2.44-2.44-2.44H5.81c-1.35,0-2.44,1.09-2.44,2.44v25.23H53.32Z"/>
      </g>
      <rect class="cls-1" width="56.69" height="56.69"/>
    </g>
  </g>
</svg>