<?xml version="1.0" encoding="UTF-8"?>
<svg id="Layer_2" data-name="Layer 2" xmlns="http://www.w3.org/2000/svg" viewBox="0 0 56.69 56.69">
  <defs>
    <style>
      .cls-1 {
        fill: #010101;
      }
    </style>
  </defs>
  <g id="Layer_1-2" data-name="Layer 1">
    <g>
      <path class="cls-1" d="M41.91,16.9H14.79c-.27,0-.49,.22-.49,.49v18.13c0,.27,.22,.49,.49,.49h27.12c.27,0,.49-.22,.49-.49V17.39c0-.27-.22-.49-.49-.49Z"/>
      <path class="cls-1" d="M28.35,0C12.69,0,0,12.69,0,28.35s12.69,28.35,28.35,28.35,28.35-12.69,28.35-28.35S44,0,28.35,0Zm17.48,35.52c0,2.17-1.76,3.92-3.92,3.92h-8.91v2.19h4.5c.81,0,1.47,.66,1.47,1.47s-.66,1.47-1.47,1.47H19.2c-.81,0-1.47-.66-1.47-1.47s.66-1.47,1.47-1.47h4.5v-2.19H14.79c-2.17,0-3.92-1.76-3.92-3.92V17.39c0-2.17,1.76-3.92,3.92-3.92h27.12c2.17,0,3.92,1.76,3.92,3.92v18.13Z"/>
    </g>
  </g>
</svg>