<?xml version="1.0" encoding="UTF-8"?>
<svg id="Layer_2" data-name="Layer 2" xmlns="http://www.w3.org/2000/svg" viewBox="0 0 56.69 56.69">
  <defs>
    <style>
      .cls-1 {
        fill: none;
      }

      .cls-2 {
        fill: #010101;
      }
    </style>
  </defs>
  <g id="Layer_1-2" data-name="Layer 1">
    <g>
      <g>
        <path class="cls-2" d="M48.43,48.15c-.12-.17-.31-.27-.52-.27H9.43c-.19,0-.37,.08-.49,.23l-3.84,4.56c-.16,.19-.2,.46-.09,.68,.11,.23,.33,.37,.58,.37H51.11c.24,0,.46-.13,.57-.35,.11-.21,.09-.47-.04-.66l-3.2-4.56Zm-1.22,.53l.37,.63h-1.51l-.31-.63h1.46Zm-16.29,0h1.55l.03,.63h-1.6l.02-.63Zm-.06,1.67h1.68l.03,.63h-1.73l.02-.63Zm-2.89-1.67h1.55l-.04,.63h-1.6l.09-.63Zm-.24,1.67h1.68l-.04,.63h-1.73l.09-.63Zm-2.71-1.67h1.54l-.11,.63h-1.59l.16-.63Zm-.42,1.67h1.67l-.11,.63h-1.72l.16-.63Zm-2.53-1.67h1.52l-.18,.63h-1.57l.23-.63Zm-.6,1.67h1.65l-.18,.63h-1.7l.23-.63Zm-2.35-1.67h1.5l-.24,.63h-1.55l.29-.63Zm-.78,1.67h1.63l-.24,.63h-1.68l.29-.63Zm-2.17-1.67h1.47l-.31,.63h-1.52l.36-.63Zm-2.94,0h1.43l-.38,.63h-1.48l.43-.63Zm-2.94,0h1.39l-.45,.63h-1.44l.5-.63Zm-1.38,3.91h-1.7l.5-.63h1.65l-.45,.63Zm1.14-1.61h-1.57l.5-.63h1.53l-.45,.63Zm2.25,1.61h-1.74l.43-.63h1.69l-.38,.63Zm.97-1.61h-1.61l.43-.63h1.56l-.38,.63Zm2.42,1.61h-1.78l.36-.63h1.73l-.31,.63Zm.8-1.61h-1.65l.36-.63h1.6l-.31,.63Zm.79,1.61l.29-.63h15.02l.03,.63h-15.34Zm16.58-3.91h1.55l.09,.63h-1.6l-.05-.63Zm.12,1.67h3.14l-.3-1.67h1.54l.6,2.3h-4.94l-.04-.63Zm.16,2.24l-.04-.63h1.81l.09,.63h-1.86Zm3.38,0l-.11-.63h1.8l.16,.63h-1.85Zm2.27-3.91h1.52l.23,.63h-1.57l-.18-.63Zm.48,1.67h1.65l.23,.63h-1.7l-.18-.63Zm.64,2.24l-.18-.63h1.78l.23,.63h-1.83Zm1.85-3.91h1.49l.3,.63h-1.54l-.25-.63Zm.65,1.67h1.63l.3,.63h-1.68l-.25-.63Zm.88,2.24l-.25-.63h1.76l.3,.63h-1.8Zm2.27-2.24h1.6l.37,.63h-1.65l-.31-.63Zm1.12,2.24l-.31-.63h1.72l.36,.63h-1.78Z"/>
        <path class="cls-2" d="M19.89,45.87c-.62,.62,.35,.97,.35,.97h16.03s.97-.35,.35-.97c-.62-.62-2.29-1.06-2.47-3.7-.01-.21,0-1.04,0-2.11h-11.8c0,1.08,.01,1.91,0,2.11-.18,2.64-1.85,3.08-2.47,3.7Z"/>
        <path class="cls-2" d="M51.68,2.97H5.02c-1.12,0-2.03,.91-2.03,2.03V37.42c0,1.12,.91,2.03,2.03,2.03H51.68c1.12,0,2.03-.91,2.03-2.03V5c0-1.12-.91-2.03-2.03-2.03ZM28.66,38.11c-.85,0-1.54-.69-1.54-1.54s.69-1.54,1.54-1.54,1.54,.69,1.54,1.54-.69,1.54-1.54,1.54Zm22.33-6.61H5.8V5.78H50.99V31.51Z"/>
      </g>
      <rect class="cls-1" width="56.69" height="56.69"/>
    </g>
  </g>
</svg>