<?xml version="1.0" encoding="UTF-8"?>
<svg id="Layer_2" data-name="Layer 2" xmlns="http://www.w3.org/2000/svg" viewBox="0 0 56.69 56.69">
  <defs>
    <style>
      .cls-1 {
        fill: #010101;
      }
    </style>
  </defs>
  <g id="Layer_1-2" data-name="Layer 1">
    <g>
      <circle class="cls-1" cx="37.96" cy="35.26" r="3.53"/>
      <path class="cls-1" d="M40.72,18.32h.76v-3.04c0-.14-.07-.28-.14-.35s-.14-.14-.35-.14l-19.84,2.21c-.21,0-.41,.21-.41,.41v3.04h.07l19.91-2.14Z"/>
      <ellipse class="cls-1" cx="14.52" cy="37.96" rx="3.46" ry="3.53"/>
      <path class="cls-1" d="M0,45.22c0,6.36,5.12,11.48,11.48,11.48H45.22c6.36,0,11.48-5.12,11.48-11.48V11.48c0-6.36-5.12-11.48-11.48-11.48H11.48C5.12,0,0,5.12,0,11.48V45.22Zm14.52-13.62c1.31,0,2.49,.41,3.46,1.11v-15.21c0-1.66,1.24-2.97,2.83-3.18l19.84-2.21c.9-.07,1.8,.21,2.49,.76,.69,.62,1.04,1.45,1.04,2.35v20.05h0c0,3.46-2.83,6.29-6.29,6.29s-6.29-2.83-6.29-6.29,2.83-6.29,6.29-6.29c1.31,0,2.56,.41,3.53,1.11v-8.57c0-.14-.07-.28-.14-.35s-.14-.14-.35-.14l-19.84,2.21c-.21,0-.41,.21-.41,.41v14.38h0c-.07,3.46-2.83,6.22-6.22,6.22s-6.22-2.83-6.22-6.29,2.9-6.36,6.29-6.36Z"/>
    </g>
  </g>
</svg>