<?xml version="1.0" encoding="UTF-8"?>
<svg id="Layer_2" data-name="Layer 2" xmlns="http://www.w3.org/2000/svg" viewBox="0 0 56.69 56.69">
  <defs>
    <style>
      .cls-1 {
        fill: none;
      }

      .cls-2 {
        fill: #010101;
      }
    </style>
  </defs>
  <g id="Layer_1-2" data-name="Layer 1">
    <g>
      <path class="cls-2" d="M47.65,1.71l-23.22,7.1c-2.8,.78-5.09,3.75-5.09,6.55v24.5s-1.68-1.12-5.43-.62c-5.48,.78-9.96,5.03-9.96,9.45s4.48,7.16,9.96,6.38c5.48-.78,9.57-4.92,9.57-9.34V24.81c0-1.96,2.35-2.8,2.35-2.8l20.53-6.43s2.29-.78,2.29,1.34v16.78h0s-2.07-1.23-5.82-.73c-5.54,.67-10.01,4.81-10.01,9.23s4.48,7.22,9.96,6.6c5.54-.67,9.96-4.81,9.96-9.29V5.34c0-2.85-2.24-4.48-5.09-3.64Z"/>
      <rect class="cls-1" width="56.69" height="56.69"/>
    </g>
  </g>
</svg>