<?xml version="1.0" encoding="UTF-8"?>
<svg id="Layer_2" data-name="Layer 2" xmlns="http://www.w3.org/2000/svg" viewBox="0 0 56.69 56.69">
  <defs>
    <style>
      .cls-1 {
        fill: none;
      }

      .cls-2 {
        fill: #010101;
      }
    </style>
  </defs>
  <g id="Layer_1-2" data-name="Layer 1">
    <g>
      <g>
        <path class="cls-2" d="M27.19,36.58c4.53,0,8.23-3.7,8.23-8.24s-3.7-8.23-8.23-8.23-8.24,3.7-8.24,8.23,3.7,8.24,8.24,8.24Zm0-13.55c2.91,0,5.3,2.39,5.3,5.3s-2.39,5.31-5.3,5.31-5.3-2.39-5.3-5.31c0-2.9,2.38-5.3,5.3-5.3Z"/>
        <path class="cls-2" d="M27.19,53c13.59,0,24.65-11.06,24.65-24.65,0-2.06-.25-4.09-.74-6.06-.03-.1-.07-.21-.13-.3l-.45-.72c-1.12,.84-2.62,1.34-4.31,1.34-3.53,0-6.3-2.22-6.3-5.06,0-2.53,2.2-4.59,5.18-4.99l-1.72-2.76c-.05-.09-.12-.18-.21-.24-4.44-3.79-10.12-5.88-15.97-5.88-13.6,0-24.66,11.06-24.66,24.66s11.06,24.65,24.66,24.65Zm0-34.96c5.68,0,10.3,4.62,10.3,10.3s-4.62,10.31-10.3,10.31-10.31-4.62-10.31-10.31c0-5.69,4.62-10.3,10.31-10.3Z"/>
        <path class="cls-2" d="M50.12,6.73c-.29-.3-.73-.38-1.13-.23-.38,.17-.63,.54-.63,.96v7.5c-.63-.27-1.37-.41-2.17-.41-2.38,0-4.23,1.32-4.23,3.01s1.86,2.99,4.23,2.99,4.23-1.31,4.23-2.99v-7.6l1.96,1.97c.4,.4,1.06,.4,1.47,0s.4-1.06,0-1.47l-3.74-3.73Z"/>
      </g>
      <rect class="cls-1" width="56.69" height="56.69"/>
    </g>
  </g>
</svg>