<?xml version="1.0" encoding="UTF-8"?>
<svg id="Layer_2" data-name="Layer 2" xmlns="http://www.w3.org/2000/svg" viewBox="0 0 56.69 56.69">
  <defs>
    <style>
      .cls-1 {
        fill: none;
      }

      .cls-2 {
        fill: #010101;
      }
    </style>
  </defs>
  <g id="Layer_1-2" data-name="Layer 1">
    <g>
      <g>
        <path class="cls-2" d="M12.56,54.66c-.48,0-.88-.39-.88-.88v-16.66c0-.48,.39-.88,.88-.88s.88,.39,.88,.88v15.78l28.94-.11v-15.68c0-.48,.39-.88,.88-.88s.88,.39,.88,.88v16.61c0,.48-.39,.88-.88,.88l-30.69,.05Z"/>
        <path class="cls-2" d="M43.87,11.01L35.1,2.24c-.08-.07-.17-.12-.26-.16-.1-.05-.22-.06-.33-.04h0l-21.94,.12c-.48,0-.88,.39-.88,.88V19.58c0,.48,.39,.88,.88,.88s.88-.39,.88-.88V3.92l20.17-.12v7.87c0,.48,.39,.88,.88,.88h7.89v7.02c0,.48,.39,.88,.88,.88s.88-.39,.88-.88v-7.93c0-.24-.09-.47-.26-.63Z"/>
        <path class="cls-2" d="M43.87,11.01L35.1,2.24c-.08-.07-.17-.12-.26-.16-.1-.05-.22-.06-.33-.04h0l-21.94,.12c-.48,0-.88,.39-.88,.88V19.58c0,.48,.39,.88,.88,.88s.88-.39,.88-.88V3.92l20.17-.12v7.87c0,.48,.39,.88,.88,.88h7.89v7.02c0,.48,.39,.88,.88,.88s.88-.39,.88-.88v-7.93c0-.24-.09-.47-.26-.63Zm-8.51-.19V4.99l5.82,5.82h-5.82Z"/>
        <path class="cls-2" d="M9.93,22.18v12.28H46.76v-12.28H9.93Zm13.73,8.59c0,.55-.23,.82-.68,.82-.1,.02-.21,.02-.32,0-.1-.03-.19-.09-.26-.16-.08-.07-.16-.16-.23-.25l-.21-.3-2.39-3.7v3.68c.01,.2-.05,.39-.18,.54-.23,.24-.61,.24-.84,.02,0,0-.01-.01-.02-.02-.12-.16-.17-.35-.16-.54v-4.84c-.03-.16-.03-.33,0-.49,.05-.13,.15-.24,.26-.32,.12-.08,.26-.12,.4-.12,.1-.02,.2-.02,.3,0,.08,.04,.15,.09,.21,.16,.07,.07,.14,.16,.19,.25l.19,.32,2.44,3.7v-3.68c-.01-.19,.04-.39,.16-.54,.11-.12,.26-.18,.42-.18,.17-.01,.33,.05,.44,.18,.12,.16,.17,.35,.16,.54l.11,4.93Zm6.09,.58c-.13,.1-.29,.15-.46,.14h-3.51c-.36,.06-.71-.18-.77-.54-.01-.08-.01-.15,0-.23v-4.72c-.03-.14-.03-.29,0-.44,.05-.11,.15-.2,.26-.25,.14-.03,.29-.03,.44,0h3.35c.16-.01,.33,.04,.46,.14,.1,.09,.15,.22,.14,.35,0,.13-.05,.26-.14,.35-.13,.1-.29,.15-.46,.14h-2.74v1.54h2.63c.16-.02,.31,.03,.44,.12,.1,.09,.15,.22,.14,.35,0,.13-.05,.26-.14,.35-.12,.1-.28,.15-.44,.14h-2.63v1.75h2.96c.16-.01,.33,.04,.46,.14,.1,.09,.16,.23,.16,.37-.02,.11-.09,.21-.18,.28h.02Zm8.45-5.1l-1.09,4.23c0,.28-.12,.49-.18,.63-.05,.14-.13,.26-.25,.35-.13,.11-.3,.17-.47,.16-.17,.01-.34-.04-.47-.14-.11-.09-.2-.2-.25-.33,0-.12-.11-.33-.19-.61l-1.02-3.77-1.03,3.77c0,.28-.14,.49-.19,.61-.05,.13-.14,.25-.25,.33-.14,.1-.3,.15-.47,.14-.13,0-.27-.02-.39-.09-.1-.06-.19-.14-.25-.25-.07-.12-.12-.25-.16-.39l-.11-.4-1.05-4.23c-.05-.18-.08-.37-.09-.56,0-.15,.06-.3,.18-.4,.11-.11,.26-.18,.42-.18,.19-.03,.38,.06,.47,.23,.1,.21,.17,.42,.21,.65l.82,3.67,.91-3.51c.05-.2,.11-.4,.18-.6,.06-.14,.15-.26,.26-.35,.15-.11,.33-.17,.51-.16,.18,0,.35,.05,.49,.16,.11,.09,.19,.2,.25,.33,0,.12,.06,.32,.18,.61l.93,3.51,.82-3.67c.03-.15,.06-.31,.11-.46,.03-.11,.09-.21,.18-.3,.11-.09,.25-.13,.39-.12,.16,0,.31,.05,.42,.16,.12,.11,.18,.26,.18,.42,.01,.18,0,.36-.02,.54h.02Z"/>
        <path class="cls-2" d="M46.76,35.37H9.93c-.48,0-.88-.39-.88-.88v-12.28c0-.48,.39-.88,.88-.88H46.76c.48,0,.88,.39,.88,.88v12.28c0,.48-.39,.88-.88,.88Zm-35.95-1.75H45.88v-10.52H10.81v10.52Z"/>
      </g>
      <rect class="cls-1" width="56.69" height="56.69"/>
    </g>
  </g>
</svg>