<?xml version="1.0" encoding="UTF-8"?>
<svg id="Layer_2" data-name="Layer 2" xmlns="http://www.w3.org/2000/svg" viewBox="0 0 56.69 56.69">
  <defs>
    <style>
      .cls-1 {
        fill: #010101;
      }
    </style>
  </defs>
  <g id="Layer_1-2" data-name="Layer 1">
    <g>
      <path class="cls-1" d="M18.86,36.66H6.02v15.56c0,2.41,1.95,4.47,4.43,4.47H27.45V30.76l-4.43,4.2c-1.15,1.07-2.66,1.7-4.16,1.7Z"/>
      <path class="cls-1" d="M34,34.96l-4.87-4.65v26.29h17c2.39,0,4.43-1.97,4.43-4.47v-15.47h-12.48c-1.51,0-2.92-.63-4.07-1.7Z"/>
      <path class="cls-1" d="M56.05,30.85l-5.05-4.74c-.62-.63-1.51-.98-2.39-.98H7.97c-.89,0-1.77,.36-2.48,.98L.71,30.85C0,31.48-.18,32.46,.18,33.35s1.15,1.43,2.13,1.43H18.86c1.06,0,2.04-.36,2.83-1.16l6.73-6.44,6.73,6.44c.8,.72,1.77,1.16,2.83,1.16h16.38c.97,0,1.77-.54,2.13-1.43s.27-1.88-.44-2.5Z"/>
      <path class="cls-1" d="M27.09,23.25c.27,.36,.71,.54,1.15,.54s.89-.18,1.15-.54l8.15-8.76c.44-.45,.53-1.16,.35-1.7-.27-.63-.8-.98-1.51-.98h-2.3V1.61c0-.89-.71-1.61-1.59-1.61h-8.5c-.89,0-1.59,.72-1.59,1.61V11.8h-2.21c-.62,0-1.24,.36-1.51,.98-.27,.63-.18,1.25,.27,1.7l8.15,8.76Z"/>
    </g>
  </g>
</svg>