<?xml version="1.0" encoding="UTF-8"?>
<svg id="Layer_2" data-name="Layer 2" xmlns="http://www.w3.org/2000/svg" viewBox="0 0 56.69 56.69">
  <defs>
    <style>
      .cls-1 {
        fill-rule: evenodd;
      }

      .cls-1, .cls-2 {
        fill: #010101;
      }

      .cls-3 {
        fill: none;
      }
    </style>
  </defs>
  <g id="Layer_1-2" data-name="Layer 1">
    <g>
      <g>
        <path class="cls-1" d="M3.58,24.99c0,28.32,30.13,16.31,21.97,9.74-10.42-8.38,7.25-10.19,8.38-16.99C36.88-1.74,3.58,7.09,3.58,24.99h0ZM27.14,11.63c0,2.72-4.08,2.72-4.08,0,0-2.49,4.08-2.49,4.08,0Zm-14.72,11.1c0,2.72-4.08,2.72-4.08,0s4.08-2.72,4.08,0Zm-.45,8.83c0,2.72-3.85,2.72-3.85,0s3.85-2.72,3.85,0Zm7.25,6.34c0,2.72-4.08,2.72-4.08,0s4.08-2.72,4.08,0Zm-1.59-23.11c0,2.72-4.08,2.72-4.08,0,0-2.49,4.08-2.49,4.08,0Z"/>
        <path class="cls-2" d="M37.11,26.35c-1.13,2.27-2.49,4.53-3.4,6.8-3.17,6.12-5.21,14.72-5.89,20.39-.23,1.81-3.17,1.59-2.95-.45,.68-5.89,2.95-14.72,5.89-21.29,1.13-2.27,2.49-4.53,3.85-6.8,.23,.91,1.36,1.59,2.49,1.36h0Z"/>
        <path class="cls-2" d="M43.45,11.63c1.13-1.59,3.62,.23,2.49,1.81-3.4,3.85-4.76,7.02-7.48,11.78-1.59,.91-3.62-.68-3.62-2.04,2.49-6.12,5.66-8.16,8.61-11.55h0Z"/>
        <path class="cls-1" d="M52.51,3.92c-2.49,3.85,0,5.21-1.36,6.8-2.95,3.4-8.61-.45-5.21-4.53,3.17-3.85,9.06-6.12,6.57-2.27h0Z"/>
      </g>
      <rect class="cls-3" width="56.69" height="56.69"/>
    </g>
  </g>
</svg>