<?xml version="1.0" encoding="UTF-8"?>
<svg id="Layer_2" data-name="Layer 2" xmlns="http://www.w3.org/2000/svg" viewBox="0 0 56.69 56.69">
  <defs>
    <style>
      .cls-1 {
        fill: none;
      }

      .cls-2 {
        fill: #010101;
      }
    </style>
  </defs>
  <g id="Layer_1-2" data-name="Layer 1">
    <g>
      <g>
        <path class="cls-2" d="M29.87,32.1c1.11-1.56,.22-4.06-2.12-4.17-1.45-.11-2.89,2.12-3.45,3.56-.89,2.34-.28,5.57,.95,7.57,.61,.89,1,1.34,.95,.89-.33-5.51,2.23-5.84,3.67-7.85h0Z"/>
        <path class="cls-2" d="M49.74,2.27c-6.9,6.73-12.63,13.53-18.37,20.98,0,0-1.45,1.89-2.34,3.12-.33,.45-.28,1.17,.17,1.5l.95,.78c.45,.39,1.11,.33,1.5-.11,1-1.11,2.62-2.84,2.62-2.84,6.35-7.01,11.97-13.91,17.31-21.87,.89-1.22-.78-2.62-1.84-1.56h0Z"/>
        <path class="cls-2" d="M45.9,24.2c-3.01-2.34-6.01-.95-8.74,.56-.61,.67-1.17,1.34-1.78,2,0,0-2.73,3.01-3.34,3.62l-.28,.28c0,.78-.28,1.61-.72,2.28-.45,.67-1,1.17-1.5,1.61-1.17,1.06-2.06,1.89-1.84,5.23,.11,.95-.5,1.5-1.06,1.67-1.28,.45-2.12-.89-2.62-1.67-1.39-2.23-2.23-5.96-1.11-8.91,.61-1.56,2.12-4.12,4.23-4.45l.11-.11c.45-.61,2.34-3.12,2.84-3.78-.11-.33-.28-.61-.33-1-.83-3.45-2.62-7.9-10.19-7.46C6.1,16.63,2.99,29.93,5.82,40.06c.95,3.45,2.17,5.07,3.4,6.9,.72,1.06,2.89,3.12,3.06,3.23,3.17,2.45,6.85,3.9,10.69,4.4,8.4,1.11,17.42-2.28,22.76-9.29,7.01-9.18,4.79-17.53,.17-21.09h0Zm-31.61-.45c.33-2.5,2.62-4.29,5.12-3.95,2.5,.33,4.29,2.67,3.95,5.18-.33,2.5-2.62,4.29-5.12,3.95-2.56-.33-4.29-2.62-3.95-5.18h0Zm-1.45,17.25c-2.5-.33-4.29-2.67-3.95-5.18s2.62-4.29,5.12-3.95,4.29,2.67,3.95,5.18-2.62,4.29-5.12,3.95Zm12.86,5.68c-.33,2.5-2.62,4.29-5.12,3.95-2.5-.33-4.29-2.67-3.95-5.18s2.62-4.29,5.12-3.95c2.5,.39,4.23,2.67,3.95,5.18Zm12.8-1.22c-.33,2.5-2.62,4.29-5.12,3.95-2.5-.33-4.29-2.67-3.95-5.18s2.62-4.29,5.12-3.95c2.5,.33,4.29,2.67,3.95,5.18Zm8.18-9.24c-.33,2.5-2.62,4.29-5.12,3.95-2.5-.33-4.29-2.67-3.95-5.18s2.62-4.29,5.12-3.95c2.5,.39,4.29,2.73,3.95,5.18Z"/>
      </g>
      <rect class="cls-1" width="56.69" height="56.69"/>
    </g>
  </g>
</svg>