<?xml version="1.0" encoding="UTF-8"?>
<svg id="Layer_2" data-name="Layer 2" xmlns="http://www.w3.org/2000/svg" viewBox="0 0 56.69 56.69">
  <defs>
    <style>
      .cls-1 {
        fill: #010101;
        fill-rule: evenodd;
      }
    </style>
  </defs>
  <g id="Layer_1-2" data-name="Layer 1">
    <path class="cls-1" d="M28.31,0c15.69,0,28.38,12.69,28.38,28.31s-12.69,28.38-28.38,28.38S0,44,0,28.31,12.69,0,28.31,0Zm6.82,14.33h1.36c1.71,0,3,1.3,3,3v22.04c0,1.64-1.3,3-3,3h-1.36c-1.71,0-3-1.36-3-3V17.33c0-1.71,1.3-3,3-3Zm-15.01,0h1.43c1.64,0,3,1.3,3,3v22.04c0,1.64-1.36,3-3,3h-1.43c-1.64,0-3-1.36-3-3V17.33c0-1.71,1.36-3,3-3Z"/>
  </g>
</svg>