<?xml version="1.0" encoding="UTF-8"?>
<svg id="Layer_2" data-name="Layer 2" xmlns="http://www.w3.org/2000/svg" viewBox="0 0 56.69 56.69">
  <defs>
    <style>
      .cls-1 {
        fill: #010101;
      }
    </style>
  </defs>
  <g id="Layer_1-2" data-name="Layer 1">
    <g>
      <path class="cls-1" d="M28.35,0C12.69,0,0,12.69,0,28.35s12.69,28.35,28.35,28.35,28.35-12.69,28.35-28.35S44,0,28.35,0Zm11.52,41.03v1.96c0,1.08-.88,1.96-1.96,1.96H18.3c-2.17,0-3.92-1.76-3.92-3.92V16.36c0-2.17,1.76-3.92,3.92-3.92h19.61c1.08,0,1.96,.88,1.96,1.96v1.96h0v24.67h0Zm3.92-24.67v26.63c0,1.08-.88,1.96-1.96,1.96h-.53c.34-.58,.53-1.25,.53-1.96V14.4c0-.71-.2-1.38-.53-1.96h.53c1.08,0,1.96,.88,1.96,1.96v1.96Z"/>
      <path class="cls-1" d="M33.18,31.28s-.74-.89-1.56-.27c-.61,.46-1.71,1.47-1.97,1.72,0,0-1.83-.98-2.91-1.87-1.61-1.32-2.68-2.95-3.24-3.88l-.42-.79c.15-.16,1.27-1.36,1.75-2.01,.61-.82-.27-1.56-.27-1.56,0,0-2.49-2.49-3.06-2.99-.57-.5-1.22-.22-1.22-.22-1.19,.77-2.43,1.44-2.5,4.67,0,3.02,2.29,6.13,4.77,8.54,2.48,2.72,5.89,5.45,9.18,5.45,3.22-.07,3.89-1.31,4.66-2.5,0,0,.28-.65-.22-1.22-.5-.57-2.99-3.06-2.99-3.06Z"/>
    </g>
  </g>
</svg>