<?xml version="1.0" encoding="UTF-8"?>
<svg id="Layer_2" data-name="Layer 2" xmlns="http://www.w3.org/2000/svg" viewBox="0 0 56.69 56.69">
  <defs>
    <style>
      .cls-1 {
        fill: none;
      }

      .cls-2 {
        fill: #010101;
      }
    </style>
  </defs>
  <g id="Layer_1-2" data-name="Layer 1">
    <g>
      <path class="cls-2" d="M51.54,21.45c-1.13-.96-2.67-1.64-4.46-1.97l-11.99-2.19v-4.75c0-6.59-1.8-7.74-5.74-10.27-.24-.15-.48-.31-.74-.47-.16-.11-.38-.11-.54,0-.25,.16-.5,.32-.73,.47-3.94,2.53-5.74,3.68-5.74,10.27v4.75l-11.99,2.19c-1.79,.33-3.34,1.01-4.46,1.97-1.27,1.08-1.95,2.48-1.95,4.04v5.58c0,.24,.21,.44,.47,.44H22.93l1.48,13.84c.04,.42,.08,.83,.11,1.23,.07,.82,.13,1.6,.29,2.29l-4.09,.75c-1.71,.31-2.81,1.36-2.81,2.67v2.25c0,.24,.21,.44,.47,.44h19.93c.26,0,.47-.2,.47-.44v-2.25c0-1.32-1.1-2.37-2.81-2.67l-4.08-.75c.15-.68,.22-1.46,.28-2.27,.03-.4,.07-.82,.11-1.24l1.48-13.84h19.25c.26,0,.47-.2,.47-.44v-5.58c0-1.56-.67-2.95-1.95-4.04Z"/>
      <rect class="cls-1" width="56.69" height="56.69"/>
    </g>
  </g>
</svg>