<?xml version="1.0" encoding="UTF-8"?>
<svg id="Layer_2" data-name="Layer 2" xmlns="http://www.w3.org/2000/svg" viewBox="0 0 56.69 56.69">
  <defs>
    <style>
      .cls-1 {
        fill: #010101;
      }
    </style>
  </defs>
  <g id="Layer_1-2" data-name="Layer 1">
    <path class="cls-1" d="M0,28.26C-.05,12.52,13.18-.41,29.13,0c14.74,.4,27.63,12.56,27.56,28.46-.06,15.64-12.8,28.28-28.45,28.22C12.59,56.63-.06,43.91,0,28.26Zm41.88,.5c-.37-.51-.8-.97-1.29-1.38-5.67-3.36-11.36-6.7-17.06-10-1.42-.83-2.56-.25-2.56,1.38-.06,6.7-.06,13.4,0,20.1,0,1.64,1.13,2.27,2.55,1.43,5.75-3.32,11.48-6.68,17.19-10.08,.42-.27,.67-.84,1.17-1.44h0Z"/>
  </g>
</svg>