<?xml version="1.0" encoding="UTF-8"?>
<svg id="Layer_2" data-name="Layer 2" xmlns="http://www.w3.org/2000/svg" viewBox="0 0 56.69 56.69">
  <g id="Layer_1-2" data-name="Layer 1">
    <g>
      <path d="M14.17,26.32h-.03c-1.12,0-2.03,.91-2.03,2.03s.91,2.03,2.03,2.03h28.4c1.12,0,2.03-.91,2.03-2.03s-.91-2.03-2.03-2.03H14.17Z"/>
      <path d="M30.37,14.17v-.03c0-1.12-.91-2.03-2.03-2.03s-2.03,.91-2.03,2.03v.03h0s0,28.34,0,28.34v.03c0,1.12,.91,2.03,2.03,2.03s2.03-.91,2.03-2.03v-.03h0s0-28.34,0-28.34Z"/>
      <path d="M28.35,0C12.71,0,0,12.72,0,28.35s12.72,28.35,28.35,28.35,28.35-12.72,28.35-28.35S43.98,0,28.35,0Zm0,4.05c13.44,0,24.3,10.86,24.3,24.3s-10.85,24.3-24.3,24.3S4.05,41.79,4.05,28.35,14.9,4.05,28.35,4.05Z"/>
    </g>
  </g>
</svg>