<?xml version="1.0" encoding="UTF-8"?>
<svg id="Layer_2" data-name="Layer 2" xmlns="http://www.w3.org/2000/svg" viewBox="0 0 56.69 56.69">
  <defs>
    <style>
      .cls-1 {
        fill: none;
      }
    </style>
  </defs>
  <g id="Layer_1-2" data-name="Layer 1">
    <g>
      <path d="M6.31,13.53h7.02V5.07c0-.65,.52-1.17,1.04-1.17h27.95c.52,0,1.04,.52,1.04,1.17V13.53h7.02c1.43,0,2.73,1.3,2.73,2.73v21.32c0,1.43-1.3,2.73-2.73,2.73h-7.02v11.44c0,.52-.52,1.04-1.04,1.04H14.37c-.52,0-1.04-.52-1.04-1.04v-11.44H6.31c-1.43,0-2.73-1.3-2.73-2.73V16.26c0-1.43,1.3-2.73,2.73-2.73Zm39.52,5.2c1.04,0,1.95,.91,1.95,1.82,0,1.04-.91,1.95-1.95,1.95-.91,0-1.82-.91-1.82-1.95,0-.91,.91-1.82,1.82-1.82ZM15.93,13.53h24.83V6.5H15.93v7.02Zm24.83,20.67H15.93v15.99h24.83v-15.99Z"/>
      <rect class="cls-1" width="56.69" height="56.69"/>
    </g>
  </g>
</svg>