<?xml version="1.0" encoding="UTF-8"?>
<svg id="Layer_2" data-name="Layer 2" xmlns="http://www.w3.org/2000/svg" viewBox="0 0 56.69 56.69">
  <defs>
    <style>
      .cls-1 {
        fill: none;
      }
    </style>
  </defs>
  <g id="Layer_1-2" data-name="Layer 1">
    <g>
      <path d="M45.33,15.91c-.29-.34-.71-.54-1.15-.55-.02,0-.04,0-.06,0-.42,0-.83,.17-1.13,.47l-2.27,2.27c-.58,.58-.63,1.52-.1,2.16,2.42,2.89,3.7,6.43,3.7,10.22,0,8.8-7.16,15.97-15.97,15.97s-15.97-7.17-15.97-15.97,7.16-15.97,15.97-15.97v4.79c0,.64,.39,1.23,.99,1.47,.2,.08,.41,.12,.61,.12,.42,0,.82-.16,1.13-.47l7.99-7.99c.62-.62,.62-1.63,0-2.26l-7.99-7.99c-.31-.31-.71-.47-1.13-.47-.21,0-.41,.04-.61,.12-.6,.25-.99,.83-.99,1.48v4.79c-12.33,0-22.36,10.03-22.36,22.36s10.03,22.36,22.36,22.36,22.36-10.03,22.36-22.36c0-5.35-1.91-10.52-5.38-14.56Z"/>
      <rect class="cls-1" width="56.69" height="56.69"/>
    </g>
  </g>
</svg>