<?xml version="1.0" encoding="UTF-8"?>
<svg id="Layer_2" data-name="Layer 2" xmlns="http://www.w3.org/2000/svg" viewBox="0 0 56.69 56.69">
  <defs>
    <style>
      .cls-1 {
        fill: #010101;
        fill-rule: evenodd;
        stroke: #fff;
      }

      .cls-2 {
        fill: none;
      }
    </style>
  </defs>
  <g id="Layer_1-2" data-name="Layer 1">
    <g>
      <rect class="cls-2" width="56.69" height="56.69"/>
      <path class="cls-1" d="M37.29,48.37h0s-13.71-16.34-13.71-16.34c.14,0,.29,0,.43,0,6.69,0,12.22-4.97,13.09-11.42h6.04v-4.23h-6.14c-.47-2.5-1.64-4.76-3.3-6.55h9.45V5.61H13.55v4.23h12.41c3.31,.73,5.93,3.28,6.76,6.55H13.55v4.23h19.23c-.91,4-4.49,6.98-8.76,6.98-2.12,0-4.06-.73-5.6-1.96l-.11,.09-.03-.04-3.24,2.72h0s-.06,.05-.06,.05c.13,.12,.26,.24,.39,.35l18.69,22.27h0s0,0,0,0h0s0,0,0,0h5.94l-2.71-2.71Z"/>
    </g>
  </g>
</svg>