<?xml version="1.0" encoding="UTF-8"?>
<svg id="Layer_2" data-name="Layer 2" xmlns="http://www.w3.org/2000/svg" viewBox="0 0 56.69 56.69">
  <g id="Layer_1-2" data-name="Layer 1">
    <g>
      <path d="M55.2,13.97L42.61,1.48c-.95-.95-2.27-1.48-3.64-1.48h-5.85V10.42c0,1.07-.9,1.95-1.97,1.95H14.68c-1.07,0-1.97-.89-1.97-1.95V0H5.13C2.33,0,0,2.25,0,5.09V51.6c0,2.78,2.27,5.09,5.13,5.09H51.56c2.8,0,5.13-2.25,5.13-5.09V17.58c0-1.36-.54-2.66-1.49-3.61Zm-10.68,31.25c0,1.07-.9,1.95-1.97,1.95H14.08c-1.07,0-1.97-.89-1.97-1.95V25.62c0-1.07,.9-1.95,1.97-1.95h28.47c1.07,0,1.97,.89,1.97,1.95v19.59Z"/>
      <path d="M24.89,9.05h3.88c.42,0,.78-.36,.78-.77V.06h-5.49V8.28c.06,.41,.42,.77,.84,.77Z"/>
      <path d="M36.7,29.12H19.99c-1.13,0-2.09,.95-2.09,2.07s.95,2.07,2.09,2.07h16.71c1.13,0,2.09-.95,2.09-2.07s-.95-2.07-2.09-2.07Z"/>
      <path d="M36.7,37.58H19.99c-1.13,0-2.09,.95-2.09,2.07s.95,2.07,2.09,2.07h16.71c1.13,0,2.09-.95,2.09-2.07s-.95-2.07-2.09-2.07Z"/>
    </g>
  </g>
</svg>