<?xml version="1.0" encoding="UTF-8"?>
<svg id="Layer_2" data-name="Layer 2" xmlns="http://www.w3.org/2000/svg" viewBox="0 0 56.69 56.69">
  <defs>
    <style>
      .cls-1 {
        fill: none;
      }
    </style>
  </defs>
  <g id="Layer_1-2" data-name="Layer 1">
    <g>
      <path d="M53.23,49.42l-13.75-15.32c-.47-.52-1.26-.56-1.78-.1l-.37,.33-1.57-1.75c-.06-.07-.12-.12-.19-.17,3.9-4.28,5.75-10.31,4.47-16.4C37.91,5.94,28.02-.5,17.94,1.62,7.87,3.75,1.43,13.64,3.55,23.71c2.12,10.07,12.01,16.52,22.09,14.39,2.29-.48,4.39-1.37,6.25-2.57,.05,.12,.12,.24,.21,.34l1.57,1.75-.37,.33c-.52,.47-.56,1.26-.1,1.78l13.75,15.32c.47,.52,1.26,.56,1.78,.1l4.4-3.95c.52-.47,.56-1.26,.1-1.78Zm-28.36-15c-8.04,1.7-15.93-3.45-17.63-11.49S10.68,7.01,18.72,5.31c8.04-1.7,15.93,3.45,17.63,11.49,1.7,8.04-3.45,15.93-11.49,17.63Z"/>
      <rect class="cls-1" width="56.69" height="56.69"/>
    </g>
  </g>
</svg>