<?xml version="1.0" encoding="UTF-8"?>
<svg id="Layer_2" data-name="Layer 2" xmlns="http://www.w3.org/2000/svg" viewBox="0 0 56.69 56.69">
  <defs>
    <style>
      .cls-1 {
        fill: none;
      }

      .cls-2 {
        fill: #010101;
      }
    </style>
  </defs>
  <g id="Layer_1-2" data-name="Layer 1">
    <g>
      <g>
        <path class="cls-2" d="M3.96,28.67c-1.95,1.03-1.87,2.53,.18,3.34l6.07,2.4c2.05,.81,5.15,.37,6.89-.99L43.46,12.63c1.73-1.36,1.92-1.16,.41,.45l-20.84,22.31c-1.51,1.61-1.06,3.58,.99,4.37l.71,.28c2.06,.8,5.41,2.13,7.45,2.96l6.73,2.74c2.05,.83,4.23-.15,4.81-2.28L54,5.75c.58-2.13-.55-3.03-2.5-2.01L3.96,28.67Z"/>
        <path class="cls-2" d="M20.62,53.36c-.12,.36,4.15-6.19,4.15-6.19,1.21-1.84,.52-4.05-1.52-4.88l-4.66-1.91c-2.04-.83-3.02,.15-2.17,2.18,0,0,4.32,10.42,4.2,10.79Z"/>
      </g>
      <rect class="cls-1" width="56.69" height="56.69"/>
    </g>
  </g>
</svg>