<?xml version="1.0" encoding="UTF-8"?>
<svg id="Layer_2" data-name="Layer 2" xmlns="http://www.w3.org/2000/svg" viewBox="0 0 56.69 56.69">
  <defs>
    <style>
      .cls-1 {
        fill: none;
      }

      .cls-2 {
        fill: #010101;
      }
    </style>
  </defs>
  <g id="Layer_1-2" data-name="Layer 1">
    <g>
      <g>
        <path class="cls-2" d="M52.26,39.82c-2.33-2.34-5.78-3.17-8.92-2.14L19,13.33C21.15,7.12,15.34,.61,8.94,1.99c-.46,.1-.77,.52-.72,.99,.03,.21,.12,.4,.26,.56l3.66,3.66-1.08,3.87-3.9,1.04-3.66-3.66c-.2-.16-.45-.24-.7-.22-.4,.04-.72,.33-.8,.72-1.42,6.4,5.21,12.26,11.36,10.06l24.33,24.35c-2.16,6.21,3.66,12.72,10.06,11.34,.46-.1,.77-.52,.72-.99-.03-.21-.12-.4-.26-.56l-3.66-3.66,1.08-3.87,3.9-1.04,3.66,3.66c.18,.16,.41,.25,.65,.27h0c.44,0,.83-.3,.91-.74,.57-2.9-.36-5.89-2.48-7.96Z"/>
        <path class="cls-2" d="M30.6,21.63l4.46,4.46c.36,.36,.93,.36,1.29,0,0,0,0,0,0,0l6.71-6.73c6.29,2.23,12.98-3.73,11.55-10.21-.08-.39-.41-.68-.8-.72-.27-.02-.54,.07-.74,.26l-3.66,3.66-3.99-1.07-1.11-3.95,3.66-3.66c.18-.2,.27-.47,.25-.74-.01-.41-.3-.76-.69-.86-6.53-1.41-12.39,5.26-10.2,11.53l-6.73,6.74c-.36,.36-.36,.93,0,1.29,0,0,0,0,0,0Z"/>
        <path class="cls-2" d="M21.61,30.61c-.36-.36-.93-.36-1.29,0,0,0,0,0,0,0l-7.21,7.21c-8.54-2.57-15,7.97-8.66,14.41,6.34,6.44,17.02-.12,14.42-8.66l7.21-7.21c.36-.36,.36-.93,0-1.29,0,0,0,0,0,0l-4.46-4.46Zm-6.4,14.73l-1.01,3.76c-.08,.32-.33,.57-.65,.65l-3.76,1.01c-.33,.1-.68,0-.91-.24l-2.74-2.74c-.24-.24-.33-.59-.24-.91l1.01-3.76c.08-.32,.33-.57,.65-.65l3.76-1.01c.33-.1,.68,0,.91,.24l2.74,2.74c.24,.24,.33,.59,.24,.91Z"/>
      </g>
      <rect class="cls-1" width="56.69" height="56.69"/>
    </g>
  </g>
</svg>