<?xml version="1.0" encoding="UTF-8"?>
<svg id="Layer_2" data-name="Layer 2" xmlns="http://www.w3.org/2000/svg" viewBox="0 0 56.69 56.69">
  <defs>
    <style>
      .cls-1 {
        fill: none;
      }

      .cls-2 {
        fill: #010101;
      }
    </style>
  </defs>
  <g id="Layer_1-2" data-name="Layer 1">
    <g>
      <path class="cls-2" d="M47.67,52.29V22.79c3.12-.45,5.53-3.13,5.53-6.37s-2.41-5.94-5.53-6.38V4.41c0-.51-.41-.92-.92-.92s-.92,.41-.92,.92v5.64c-3.12,.45-5.53,3.14-5.53,6.38s2.41,5.92,5.53,6.37v29.49c0,.51,.41,.92,.92,.92s.92-.41,.92-.92Zm-36.8,0V22.79c3.12-.45,5.53-3.13,5.53-6.37s-2.41-5.94-5.53-6.38V4.41c0-.51-.41-.92-.92-.92s-.92,.41-.92,.92v5.64c-3.12,.45-5.53,3.14-5.53,6.38s2.41,5.92,5.53,6.37v29.49c0,.51,.41,.92,.92,.92s.92-.41,.92-.92Zm18.21,0v-17.16c3.32-.36,5.91-3.18,5.91-6.59s-2.59-6.23-5.91-6.59V4.41c0-.51-.41-.92-.92-.92s-.92,.41-.92,.92V22c-3.13,.53-5.52,3.26-5.52,6.54s2.39,6,5.52,6.53v17.21c0,.51,.41,.92,.92,.92s.92-.41,.92-.92Z"/>
      <rect class="cls-1" width="56.69" height="56.69"/>
    </g>
  </g>
</svg>