<?xml version="1.0" encoding="UTF-8"?>
<svg id="Layer_2" data-name="Layer 2" xmlns="http://www.w3.org/2000/svg" viewBox="0 0 56.69 56.69">
  <defs>
    <style>
      .cls-1 {
        fill: #010101;
      }
    </style>
  </defs>
  <g id="Layer_1-2" data-name="Layer 1">
    <path class="cls-1" d="M54.14,34.01l-3.03-1.66c-2.28-1.24-3.13-4.09-1.9-6.37,.43-.8,1.09-1.46,1.9-1.9l3.03-1.66c2.53-1.42,3.29-4.25,1.77-6.38l-2.53-4.01c-1.44-2.31-4.46-3.05-6.8-1.66l-3.03,1.66c-3.29,1.89-7.59-.47-7.59-4.01v-3.31c0-2.6-2.27-4.72-5.06-4.72h-5.09c-2.78,0-5.06,2.13-5.06,4.72v3.07c0,3.54-4.3,5.91-7.59,4.01l-3.03-1.42c-2.35-1.34-5.33-.61-6.8,1.66L.78,16.06c-1.28,2.32-.49,5.24,1.77,6.62l3.03,1.66c2.22,1.12,3.11,3.83,1.98,6.05-.43,.86-1.13,1.55-1.98,1.98l-3.03,1.65C0,35.43-.73,38.27,.78,40.39l2.53,4.01c1.44,2.31,4.46,3.05,6.8,1.66l3.03-1.42c3.29-1.89,7.59,.47,7.59,4.01v3.31c0,2.6,2.27,4.72,5.06,4.72h5.06c2.78,0,5.06-2.13,5.06-4.72v-3.07c0-3.54,4.3-5.91,7.59-4.01l3.03,1.66c2.35,1.34,5.33,.61,6.8-1.66l2.53-4.01c1.33-2.6,.57-5.44-1.71-6.85Zm-25.79,3.78c-5.56,0-10.11-4.25-10.11-9.45s4.54-9.45,10.11-9.45,10.11,4.25,10.11,9.45-4.55,9.45-10.11,9.45Z"/>
  </g>
</svg>