<?xml version="1.0" encoding="UTF-8"?>
<svg id="Layer_2" data-name="Layer 2" xmlns="http://www.w3.org/2000/svg" viewBox="0 0 56.69 56.69">
  <defs>
    <style>
      .cls-1 {
        fill: none;
      }

      .cls-2 {
        fill: #010101;
      }
    </style>
  </defs>
  <g id="Layer_1-2" data-name="Layer 1">
    <g>
      <path class="cls-2" d="M44.15,55.51c6.24,0,11.31-5.04,11.31-11.31,0-6.7-5.71-11.37-11.26-11.37-1.4,0-2.74,.25-3.98,.72L23.15,16.35c2.71-7.19-2.66-15.17-10.6-15.17-1.45,0-2.83,.27-4.09,.77l4.14,4.16c1.76,1.79,1.74,4.64-.02,6.4-1.76,1.76-4.63,1.75-6.4-.02L2.03,8.32c-.52,1.29-.79,2.69-.79,4.16,0,8.08,8.21,13.54,15.69,10.42h.02l16.75,16.94c-.54,1.36-.86,2.83-.86,4.36,0,6.26,5.06,11.31,11.31,11.31Zm0-18.09c3.73,0,6.78,3.05,6.78,6.78s-3.05,6.78-6.78,6.78-6.78-3.03-6.78-6.78,3.05-6.78,6.78-6.78Z"/>
      <rect class="cls-1" width="56.69" height="56.69"/>
    </g>
  </g>
</svg>