<?xml version="1.0" encoding="UTF-8"?>
<svg id="Layer_2" data-name="Layer 2" xmlns="http://www.w3.org/2000/svg" viewBox="0 0 56.69 56.69">
  <defs>
    <style>
      .cls-1 {
        fill: none;
      }

      .cls-2 {
        fill: #010101;
      }
    </style>
  </defs>
  <g id="Layer_1-2" data-name="Layer 1">
    <g>
      <path class="cls-2" d="M52.86,11.77c-.37-.06-.81,0-1.12,.31l-5.92,5.98-5.05-1.68-1.56-4.67,6.11-6.05c.31-.31,.37-.69,.31-1.12-.06-.37-.31-.69-.69-.87-2.12-.87-3.99-1.18-5.73-1.18-4.18,0-8.1,1.56-11.03,4.49s-4.61,6.79-4.61,10.91c0,1.37,.19,2.74,.56,4.05L4.06,42.12c-2.74,2.74-2.74,7.29,0,10.03,1.43,1.43,3.24,2.06,5.05,2.06s3.61-.69,5.05-2.06l19.7-19.7c1.68,.62,3.49,.93,5.3,.93h.06c4.11,0,8.1-1.56,11.03-4.49h0c4.18-4.3,5.61-10.72,3.43-16.33-.12-.5-.44-.69-.81-.81ZM11.6,49.16c-1.37,1.37-3.49,1.37-4.74,0-1.37-1.37-1.37-3.49,0-4.74,1.37-1.25,3.49-1.37,4.74,0,1.25,1.31,1.31,3.49,0,4.74Z"/>
      <rect class="cls-1" width="56.69" height="56.69"/>
    </g>
  </g>
</svg>