<?xml version="1.0" encoding="UTF-8"?>
<svg id="Layer_2" data-name="Layer 2" xmlns="http://www.w3.org/2000/svg" viewBox="0 0 56.69 56.69">
  <defs>
    <style>
      .cls-1 {
        fill: #010101;
      }
    </style>
  </defs>
  <g id="Layer_1-2" data-name="Layer 1">
    <path class="cls-1" d="M56.53,21.41c-.39-1.21-1.37-2.09-2.59-2.28l-15.71-2.38L31.22,1.86c-.55-1.15-1.65-1.86-2.87-1.86s-2.32,.72-2.87,1.86l-7.03,14.89-15.71,2.38c-1.22,.19-2.19,1.07-2.57,2.28-.39,1.23-.07,2.54,.81,3.42l11.38,11.59-2.68,16.35c-.21,1.27,.28,2.51,1.27,3.27,.99,.75,2.28,.85,3.37,.25l14.02-7.7,14.05,7.71c.48,.26,.99,.39,1.5,.39,.66,0,1.31-.22,1.87-.64,.99-.76,1.48-2,1.27-3.27l-2.67-16.35,11.37-11.59c.88-.89,1.19-2.21,.81-3.43Z"/>
  </g>
</svg>