<?xml version="1.0" encoding="UTF-8"?>
<svg id="Layer_2" data-name="Layer 2" xmlns="http://www.w3.org/2000/svg" viewBox="0 0 56.69 56.69">
  <defs>
    <style>
      .cls-1 {
        fill: #010101;
        fill-rule: evenodd;
      }
    </style>
  </defs>
  <g id="Layer_1-2" data-name="Layer 1">
    <path class="cls-1" d="M54.23,28.35c0,14.29-11.59,25.88-25.88,25.88S2.46,42.64,2.46,28.35,14.05,2.46,28.35,2.46s25.88,11.59,25.88,25.88Zm2.46,0c0,15.66-12.69,28.35-28.35,28.35S0,44,0,28.35,12.69,0,28.35,0s28.35,12.69,28.35,28.35Zm-41.03-1.69c.48-.47,1.25-.47,1.72,0l7.54,7.5,14.37-14.2c.48-.47,1.25-.47,1.73,0,.48,.48,.48,1.26,0,1.74l-14.76,14.57c-.74,.73-1.94,.73-2.67,0l-7.92-7.87c-.48-.48-.48-1.26,0-1.74Z"/>
  </g>
</svg>