<?xml version="1.0" encoding="UTF-8"?>
<svg id="Layer_2" data-name="Layer 2" xmlns="http://www.w3.org/2000/svg" viewBox="0 0 56.69 56.69">
  <defs>
    <style>
      .cls-1 {
        fill: #010101;
      }
    </style>
  </defs>
  <g id="Layer_1-2" data-name="Layer 1">
    <path class="cls-1" d="M28.35,0C12.71,0,0,12.71,0,28.35s12.71,28.35,28.35,28.35,28.35-12.71,28.35-28.35S43.98,0,28.35,0Zm15.49,19.64l-19.36,19.36c-.27,.27-.62,.41-.97,.41s-.71-.14-.97-.41l-9.68-9.68c-.55-.54-.55-1.41,0-1.95,.54-.55,1.41-.55,1.95,0l8.7,8.7,18.38-18.38c.54-.55,1.41-.55,1.95,0,.55,.54,.55,1.41,0,1.95Z"/>
  </g>
</svg>