<?xml version="1.0" encoding="UTF-8"?>
<svg id="Layer_2" data-name="Layer 2" xmlns="http://www.w3.org/2000/svg" viewBox="0 0 56.69 56.69">
  <defs>
    <style>
      .cls-1 {
        fill: none;
      }

      .cls-2 {
        fill: #010101;
      }
    </style>
  </defs>
  <g id="Layer_1-2" data-name="Layer 1">
    <g>
      <g>
        <path class="cls-2" d="M1.11,46.94c0,2.3,1.87,4.17,4.17,4.17H51.38c2.3,0,4.17-1.87,4.17-4.17V29.26H1.11v17.68Z"/>
        <path class="cls-2" d="M51.38,13.48h-11.42c-.39-4.47-4.13-7.89-8.61-7.9h-6.01c-4.48,0-8.22,3.43-8.61,7.9H5.31c-2.3,0-4.17,1.87-4.17,4.17v8.49H55.58v-8.46c.02-2.3-1.84-4.18-4.14-4.2-.02,0-.04,0-.06,0Zm-31,0c.38-2.78,2.09-4.26,4.96-4.26h6.01c2.91,0,4.59,1.45,4.96,4.26h-15.93Z"/>
      </g>
      <rect class="cls-1" width="56.69" height="56.69"/>
    </g>
  </g>
</svg>