<?xml version="1.0" encoding="UTF-8"?>
<svg id="Layer_2" data-name="Layer 2" xmlns="http://www.w3.org/2000/svg" viewBox="0 0 56.69 56.69">
  <defs>
    <style>
      .cls-1 {
        fill: none;
      }

      .cls-2 {
        fill: #010101;
      }
    </style>
  </defs>
  <g id="Layer_1-2" data-name="Layer 1">
    <g>
      <path class="cls-2" d="M21.25,51.67c-.9,0-1.74-.34-2.36-.96l-14.73-15.18c-1.41-1.29-1.46-3.49-.11-4.89,1.29-1.41,3.49-1.46,4.89-.11l10.8,7.7c.62,.56,1.57,.45,2.08-.22L47.4,6.41c1.12-1.52,3.32-1.86,4.84-.67,1.52,1.12,1.86,3.32,.67,4.84L24.01,50.27c-.62,.79-1.52,1.29-2.47,1.35-.11,.06-.17,.06-.28,.06Z"/>
      <rect class="cls-1" width="56.69" height="56.69"/>
    </g>
  </g>
</svg>