<?xml version="1.0" encoding="UTF-8"?>
<svg id="Layer_2" data-name="Layer 2" xmlns="http://www.w3.org/2000/svg" viewBox="0 0 56.69 56.69">
  <defs>
    <style>
      .cls-1 {
        fill: none;
      }

      .cls-2 {
        fill: #010101;
      }
    </style>
  </defs>
  <g id="Layer_1-2" data-name="Layer 1">
    <g>
      <path class="cls-2" d="M21.65,1.57v3.35h3.35v3.66C13.68,10.22,4.92,19.93,4.92,31.69c0,12.9,10.53,23.43,23.43,23.43s23.43-10.53,23.43-23.43c0-5.03-1.57-9.67-4.29-13.49l-4.39,5.65c1.24,2.34,1.99,4.99,1.99,7.85,0,9.28-7.45,16.73-16.73,16.73s-16.73-7.45-16.73-16.73S19.07,14.96,28.35,14.96c2.9,0,5.58,.81,7.95,2.09l5.65-4.39c-2.99-2.15-6.46-3.53-10.25-4.08v-3.66h3.35V1.57h-13.39Zm26.77,10.04L26.04,29.39c-1.34,1.34-1.34,3.26,0,4.6s3.26,1.34,4.6,0c0,0,17.78-22.38,17.78-22.38Z"/>
      <rect class="cls-1" width="56.69" height="56.69"/>
    </g>
  </g>
</svg>