<?xml version="1.0" encoding="UTF-8"?>
<svg id="Layer_2" data-name="Layer 2" xmlns="http://www.w3.org/2000/svg" viewBox="0 0 56.69 56.69">
  <defs>
    <style>
      .cls-1 {
        fill: none;
      }

      .cls-2 {
        fill: #010101;
      }
    </style>
  </defs>
  <g id="Layer_1-2" data-name="Layer 1">
    <g>
      <path class="cls-2" d="M47.23,12.3h-10.86V1.44l10.86,10.86Zm1.18,4.01V50.41c0,3.32-2.7,6.01-6.02,6.02H14.31c-3.32,0-6.01-2.7-6.02-6.02V6.28c0-3.32,2.7-6.01,6.02-6.02h18.05V14.31c0,1.11,.9,2.01,2.01,2.01h14.04Zm-18.05,28.08c0-1.11-.9-2.01-2.01-2.01s-2.01,.9-2.01,2.01,.9,2.01,2.01,2.01,2.01-.9,2.01-2.01Zm5.89-19.49c-.79-4.36-4.97-7.25-9.33-6.46-1.37,.25-2.66,.85-3.73,1.75-1.82,1.52-2.87,3.77-2.87,6.15,0,1.11,.9,2.01,2.01,2.01s2.01-.9,2.01-2.01c0-2.22,1.8-4.01,4.02-4.01,.25,0,.49,.02,.74,.07,2.18,.41,3.61,2.51,3.2,4.69-.25,1.33-1.16,2.45-2.42,2.97-2.18,.94-3.58,3.1-3.54,5.48v2.85c0,1.11,.9,2.01,2.01,2.01s2.01-.9,2.01-2.01v-2.85c-.03-.75,.38-1.44,1.06-1.77,3.5-1.44,5.52-5.13,4.83-8.85Z"/>
      <rect class="cls-1" width="56.69" height="56.69"/>
    </g>
  </g>
</svg>