<?xml version="1.0" encoding="UTF-8"?>
<svg id="Layer_2" data-name="Layer 2" xmlns="http://www.w3.org/2000/svg" viewBox="0 0 56.69 56.69">
  <defs>
    <style>
      .cls-1 {
        fill: none;
      }

      .cls-2 {
        fill: #010101;
      }
    </style>
  </defs>
  <g id="Layer_1-2" data-name="Layer 1">
    <g>
      <rect class="cls-1" width="56.69" height="56.69"/>
      <path class="cls-2" d="M49.29,43.96V27.43h0c0-.05,.02-.1,.02-.16,0-2.16-1.75-3.91-3.91-3.91h-1.4v-7.72C43.99,7,36.99,0,28.35,0S12.7,7,12.7,15.64v4.04h7.92v-2.68h-3.19c0-1.62,1.46-2.94,3.26-2.94,.03,0,.07,0,.1,0,.73-3.51,3.83-6.15,7.56-6.15,4.26,0,7.72,3.46,7.72,7.72v7.72H11.3c-2.16,0-3.91,1.75-3.91,3.91,0,.05,.01,.11,.02,.16v16.52c0,.17-.02,.34-.02,.51,0,.11,.01,.22,.02,.34v.29h.01c.31,6.1,5.05,11.02,11.07,11.6h19.72c6.02-.58,10.76-5.5,11.07-11.6h.01v-.29c0-.11,.02-.22,.02-.34,0-.17,0-.34-.02-.51Zm-17.2-2.07c0,2.05-1.66,3.71-3.71,3.71s-3.71-1.66-3.71-3.71v-3.71c0-2.05,1.66-3.71,3.71-3.71s3.71,1.66,3.71,3.71v3.71Z"/>
    </g>
  </g>
</svg>