<?xml version="1.0" encoding="UTF-8"?>
<svg id="Layer_2" data-name="Layer 2" xmlns="http://www.w3.org/2000/svg" viewBox="0 0 56.69 56.69">
  <defs>
    <style>
      .cls-1 {
        fill: #010101;
      }
    </style>
  </defs>
  <g id="Layer_1-2" data-name="Layer 1">
    <path class="cls-1" d="M54.41,0C37.03,.02,19.65,.02,2.27,0,1.19,0,.42,.33,0,1.34V55.36c.24,.61,.72,1.09,1.33,1.33H55.36c.61-.24,1.09-.72,1.33-1.33V1.35c-.43-1.01-1.19-1.35-2.28-1.35ZM30.15,3.58h5.25v5.25h-5.25V3.58Zm5.01,24.72l-13.63,7.84v-15.68l13.63,7.84ZM8.82,53.1H3.56v-5.24h5.27v5.24Zm0-44.26H3.58V3.59h5.25v5.25h0Zm8.85,44.29h-5.24v-5.26h5.25v5.25h-.01Zm0-44.28h-5.24V3.58h5.25v5.26Zm3.6-5.26h5.24v5.24h-5.24V3.59Zm5.26,49.52h-5.25v-5.25h5.25v5.25Zm8.86,0h-5.24v-5.23h5.25v5.23Zm8.84,0h-5.24v-5.25h5.24v5.25Zm0-44.29h-5.24V3.58h5.24v5.23Zm3.6-5.23h5.26v5.25h-5.25V3.59h-.01Zm5.27,49.52h-5.24v-5.24h5.25v5.25h-.01Z"/>
  </g>
</svg>