<?xml version="1.0" encoding="UTF-8"?>
<svg id="Layer_2" data-name="Layer 2" xmlns="http://www.w3.org/2000/svg" viewBox="0 0 56.69 56.69">
  <defs>
    <style>
      .cls-1 {
        fill: #010101;
      }
    </style>
  </defs>
  <g id="Layer_1-2" data-name="Layer 1">
    <g>
      <path class="cls-1" d="M28.35,0c15.66,0,28.35,12.69,28.35,28.35s-12.69,28.35-28.35,28.35S0,44,0,28.35,12.69,0,28.35,0Zm0,2.83C14.26,2.83,2.83,14.26,2.83,28.35s11.42,25.51,25.51,25.51,25.51-11.42,25.51-25.51S42.44,2.83,28.35,2.83Z"/>
      <path class="cls-1" d="M28.35,10.87c1.83,0,3.31,1.48,3.31,3.31s-1.48,3.31-3.31,3.31-3.31-1.48-3.31-3.31,1.48-3.31,3.31-3.31Z"/>
      <path class="cls-1" d="M28.35,20.31c1.83,0,3.31,1.48,3.31,3.31h0v21.73c0,1.83-1.48,3.31-3.31,3.31s-3.31-1.48-3.31-3.31h0V23.62c0-1.83,1.48-3.31,3.31-3.31Z"/>
    </g>
  </g>
</svg>