<?xml version="1.0" encoding="UTF-8"?>
<svg id="Layer_2" data-name="Layer 2" xmlns="http://www.w3.org/2000/svg" viewBox="0 0 56.69 56.69">
  <defs>
    <style>
      .cls-1 {
        fill: #010101;
        fill-rule: evenodd;
      }
    </style>
  </defs>
  <g id="Layer_1-2" data-name="Layer 1">
    <path class="cls-1" d="M28.48,0c15.58,0,28.21,12.63,28.21,28.48s-12.63,28.21-28.21,28.21S0,44.06,0,28.48,12.63,0,28.48,0ZM11.02,41.92L41.92,11.02c-3.76-2.96-8.33-4.57-13.43-4.57-12.36,0-22.03,9.67-22.03,22.03,0,5.11,1.61,9.67,4.57,13.43ZM45.95,14.78L14.78,45.95c3.76,2.69,8.6,4.57,13.7,4.57,12.09,0,22.03-9.94,22.03-22.03,0-5.11-1.88-9.94-4.57-13.7Z"/>
  </g>
</svg>