<?xml version="1.0" encoding="UTF-8"?>
<svg id="Layer_2" data-name="Layer 2" xmlns="http://www.w3.org/2000/svg" viewBox="0 0 56.69 56.69">
  <defs>
    <style>
      .cls-1 {
        fill: #010101;
      }
    </style>
  </defs>
  <g id="Layer_1-2" data-name="Layer 1">
    <path class="cls-1" d="M55.62,47.26l-9.91-9.91c-1.25-1.25-3.16-1.31-4.54-.36l-3.52-3.52c2.63-3.52,4.24-7.82,4.24-12.53C41.89,9.43,32.52,0,20.95,0S0,9.37,0,20.95s9.37,20.95,20.95,20.95c4.71,0,9.07-1.61,12.53-4.24l3.52,3.52c-.95,1.43-.84,3.28,.36,4.54l9.91,9.91c1.43,1.43,3.7,1.43,5.13,0l3.22-3.22c1.43-1.37,1.43-3.7,0-5.13ZM30.67,22.38c0,.66-.54,1.19-1.19,1.19h-5.91v5.91c0,.66-.54,1.19-1.19,1.19h-2.92c-.66,0-1.19-.54-1.19-1.19v-5.91h-5.91c-.66,0-1.19-.54-1.19-1.19v-2.92c0-.66,.54-1.19,1.19-1.19h5.91v-5.91c0-.66,.54-1.19,1.19-1.19h2.92c.66,0,1.19,.54,1.19,1.19v5.91h5.91c.66,0,1.19,.54,1.19,1.19v2.92Z"/>
  </g>
</svg>