<?xml version="1.0" encoding="UTF-8"?>
<svg id="Layer_2" data-name="Layer 2" xmlns="http://www.w3.org/2000/svg" viewBox="0 0 56.69 56.69">
  <defs>
    <style>
      .cls-1 {
        fill: #010101;
      }
    </style>
  </defs>
  <g id="Layer_1-2" data-name="Layer 1">
    <g>
      <path class="cls-1" d="M21.56,43.14c4.72,0,9.31-1.54,13.06-4.41l.06,.14,2.21,4.37c.13,.26,.31,.5,.52,.71l11.65,11.66c1.26,1.26,3.15,1.47,4.17,.43l2.81-2.79c1.03-1.03,.84-2.9-.43-4.17l-11.68-11.65c-.21-.21-.44-.38-.71-.52l-4.36-2.21-.14-.06c7.21-9.48,5.38-23.01-4.09-30.23C25.14-2.81,11.62-.97,4.41,8.51-2.81,17.98-.97,31.52,8.5,38.73c3.76,2.86,8.35,4.41,13.06,4.41Zm0-40c10.17,0,18.41,8.25,18.41,18.43s-8.24,18.43-18.41,18.43S3.15,31.74,3.15,21.56c.01-10.17,8.25-18.42,18.41-18.43Z"/>
      <polygon class="cls-1" points="19.99 35.77 23.14 35.77 23.14 23.14 35.77 23.14 35.77 19.99 23.14 19.99 23.14 7.35 19.99 7.35 19.99 19.99 7.36 19.99 7.36 23.14 19.99 23.14 19.99 35.77"/>
    </g>
  </g>
</svg>