<?xml version="1.0" encoding="UTF-8"?>
<svg id="Layer_2" data-name="Layer 2" xmlns="http://www.w3.org/2000/svg" viewBox="0 0 42.52 42.52">
  <defs>
    <style>
      .cls-1 {
        fill: #231f20;
      }
    </style>
  </defs>
  <g id="Layer_1-2" data-name="Layer 1">
    <path class="cls-1" d="M0,0V42.52H42.52V0H0ZM32.53,41.32h-7.13v-14.96c0-1.13-.38-1.7-1.13-1.7s-1.51,.73-2.19,2.18c-.68,1.45-1.02,3.01-1.02,4.68v9.8h-7.13V14.66c2.11,0,4.48-.14,7.13-.41v10.76c1.54-2.59,3.7-3.89,6.5-3.89,3.31,0,4.96,1.48,4.96,4.45v15.74Zm5.52,.37c-2.29,0-3.44-1.15-3.44-3.44s1.15-3.44,3.44-3.44,3.44,1.15,3.44,3.44-1.15,3.44-3.44,3.44Z"/>
  </g>
</svg>