<?xml version="1.0" encoding="UTF-8"?>
<svg id="Layer_2" data-name="Layer 2" xmlns="http://www.w3.org/2000/svg" viewBox="0 0 42.52 42.52">
  <defs>
    <style>
      .cls-1 {
        fill: #231f20;
      }
    </style>
  </defs>
  <g id="Layer_1-2" data-name="Layer 1">
    <path class="cls-1" d="M21.26,0C9.52,0,0,9.52,0,21.26s9.52,21.26,21.26,21.26,21.26-9.52,21.26-21.26S33,0,21.26,0Zm8.34,34.14h-4.76v-9.99c0-.76-.25-1.13-.76-1.13s-1.01,.48-1.46,1.45c-.45,.97-.68,2.01-.68,3.12v6.55h-4.76V16.33c1.41,0,3-.09,4.76-.27v7.19c1.03-1.73,2.47-2.6,4.34-2.6,2.21,0,3.31,.99,3.31,2.97v10.51Zm3.69,.25c-1.53,0-2.3-.77-2.3-2.3s.77-2.3,2.3-2.3,2.3,.77,2.3,2.3-.77,2.3-2.3,2.3Z"/>
  </g>
</svg>